<?xml version="1.0" encoding="UTF-8"?>
<!DOCTYPE svg PUBLIC "-//W3C//DTD SVG 1.1//EN" "http://www.w3.org/Graphics/SVG/1.1/DTD/svg11.dtd">
<!--suppress ALL -->
<svg xmlns="http://www.w3.org/2000/svg" xmlns:xlink="http://www.w3.org/1999/xlink" version="1.1" width="3243px" height="678px" viewBox="-0.5 -0.5 3243 678" animation="{&quot;scriptArr&quot;:[],&quot;cellIdArr&quot;:[]}" isStartAnimationWithPreviousPage="with" style="background-color: rgb(255, 255, 255);"><defs><style type="text/css">ul { margin-top: 0px; margin-bottom: 10px; }&#xa;ol { margin-top: 0px; margin-bottom: 10px; }&#xa;.h1, .h2, .h3, .h4, .h5, .h6, h1, h2, h3, h4, h5, h6 { margin-bottom: .5rem; font-weight: 500; line-height: 1.2; }&#xa;h1, h2, h3, h4, h5, h6 { margin-top: 0; margin-bottom: .5rem; }&#xa;.h1, h1 { font-size: 2.5rem; }&#xa;h2 { font-size: 1.5em; font-weight: bold; }&#xa;h3 { font-size: 1.17em; font-weight: bold; }&#xa;.h4, h4 { font-size: 1.5rem; }&#xa;.h5, h5 { font-size: 1.25rem; }&#xa;.h6, h6 { font-size: 1rem; }&#xa;p { margin-top: 0; margin-bottom: 1rem; }&#xa;a { color: #007bff; }&#xa;ul { margin-top: 0px; margin-bottom: 10px; }&#xa;ol { margin-top: 0px; margin-bottom: 10px; }&#xa;.h1, .h2, .h3, .h4, .h5, .h6, h1, h2, h3, h4, h5, h6 { margin-bottom: .5rem; font-weight: 500; line-height: 1.2; }&#xa;h1, h2, h3, h4, h5, h6 { margin-top: 0; margin-bottom: .5rem; }&#xa;.h1, h1 { font-size: 2.5rem; }&#xa;h2 { font-size: 1.5em; font-weight: bold; }&#xa;h3 { font-size: 1.17em; font-weight: bold; }&#xa;.h4, h4 { font-size: 1.5rem; }&#xa;.h5, h5 { font-size: 1.25rem; }&#xa;.h6, h6 { font-size: 1rem; }&#xa;p { margin-top: 0; margin-bottom: 1rem; }&#xa;a { color: #007bff; }&#xa;ul { margin-top: 0px; margin-bottom: 10px; }&#xa;ol { margin-top: 0px; margin-bottom: 10px; }&#xa;.h1, .h2, .h3, .h4, .h5, .h6, h1, h2, h3, h4, h5, h6 { margin-bottom: .5rem; font-weight: 500; line-height: 1.2; }&#xa;h1, h2, h3, h4, h5, h6 { margin-top: 0; margin-bottom: .5rem; }&#xa;.h1, h1 { font-size: 2.5rem; }&#xa;h2 { font-size: 1.5em; font-weight: bold; }&#xa;h3 { font-size: 1.17em; font-weight: bold; }&#xa;.h4, h4 { font-size: 1.5rem; }&#xa;.h5, h5 { font-size: 1.25rem; }&#xa;.h6, h6 { font-size: 1rem; }&#xa;p { margin-top: 0; margin-bottom: 1rem; }&#xa;a { color: #007bff; }&#xa;</style><style type="text/css">@import url(https://fonts.googleapis.com/css2?family=Open+Sans:ital,wght@0,400;0,700;1,400;1,700&amp;display=swap);&#xa;@import url(https://fonts.googleapis.com/css2?family=Open+Sans:ital,wght@0,400;0,700;1,400;1,700&amp;display=swap);&#xa;</style></defs><g><g shape-node=""><path cell-id="ViGWQ29Sq1G8j5HzgEND-89" d="M 1722.47 325.5 L 1722.47 315.53 L 1722.47 325.06 L 1722.47 315" fill="none" stroke="#000000" stroke-miterlimit="10" pointer-events="stroke"/></g><g shape-node=""><rect cell-id="SEvGa5asQ0bYrBO9of45-1" x="1342" y="360" width="136" height="40" fill="rgba(122, 207, 245, 1)" stroke="#000000" pointer-events="all"/><rect cell-id="SEvGa5asQ0bYrBO9of45-1" x="1342" y="360" width="136" height="40" fill="none" stroke="#000000" pointer-events="all"/><path cell-id="SEvGa5asQ0bYrBO9of45-1" d="M 1463 365 L 1473 365" fill="none" stroke="#000000" stroke-miterlimit="10" pointer-events="all"/><path cell-id="SEvGa5asQ0bYrBO9of45-1" d="M 1473 365 L 1473 381" fill="none" stroke="#000000" stroke-miterlimit="10" pointer-events="all"/><path cell-id="SEvGa5asQ0bYrBO9of45-1" d="M 1463 381 L 1473 381" fill="none" stroke="#000000" stroke-miterlimit="10" pointer-events="all"/><path cell-id="SEvGa5asQ0bYrBO9of45-1" d="M 1463 365 L 1463 368" fill="none" stroke="#000000" stroke-miterlimit="10" pointer-events="all"/><rect cell-id="SEvGa5asQ0bYrBO9of45-1" x="1460" y="368" width="7" height="4" fill="none" stroke="#000000" pointer-events="all"/><path cell-id="SEvGa5asQ0bYrBO9of45-1" d="M 1463 372 L 1463 374" fill="none" stroke="#000000" stroke-miterlimit="10" pointer-events="all"/><rect cell-id="SEvGa5asQ0bYrBO9of45-1" x="1460" y="374" width="7" height="4" fill="none" stroke="#000000" pointer-events="all"/><path cell-id="SEvGa5asQ0bYrBO9of45-1" d="M 1463 378 L 1463 381" fill="none" stroke="#000000" stroke-miterlimit="10" pointer-events="all"/></g><g shape-node=""><g cell-id="SEvGa5asQ0bYrBO9of45-1" fill="#000000" font-family="Helvetica" font-weight="bold" text-anchor="middle" font-size="12px"><text cell-id="SEvGa5asQ0bYrBO9of45-1" x="1400" y="375.5">&lt;&lt;component&gt;&gt;</text><text cell-id="SEvGa5asQ0bYrBO9of45-1" x="1400" y="389.5">API Gateway</text></g></g><g shape-node=""><rect cell-id="d2wP55hhnIWn4dpN-6_s-5" x="1337" y="374" width="12" height="12" fill="#7acff5" stroke="#000000" pointer-events="all"/></g><g shape-node=""><rect cell-id="ViGWQ29Sq1G8j5HzgEND-1" x="1657" y="166" width="136" height="50" fill="#7acff5" stroke="#000000" pointer-events="all"/><rect cell-id="ViGWQ29Sq1G8j5HzgEND-1" x="1657" y="166" width="136" height="50" fill="none" stroke="#000000" pointer-events="all"/><path cell-id="ViGWQ29Sq1G8j5HzgEND-1" d="M 1778 171 L 1788 171" fill="none" stroke="#000000" stroke-miterlimit="10" pointer-events="all"/><path cell-id="ViGWQ29Sq1G8j5HzgEND-1" d="M 1788 171 L 1788 187" fill="none" stroke="#000000" stroke-miterlimit="10" pointer-events="all"/><path cell-id="ViGWQ29Sq1G8j5HzgEND-1" d="M 1778 187 L 1788 187" fill="none" stroke="#000000" stroke-miterlimit="10" pointer-events="all"/><path cell-id="ViGWQ29Sq1G8j5HzgEND-1" d="M 1778 171 L 1778 174" fill="none" stroke="#000000" stroke-miterlimit="10" pointer-events="all"/><rect cell-id="ViGWQ29Sq1G8j5HzgEND-1" x="1775" y="174" width="7" height="4" fill="none" stroke="#000000" pointer-events="all"/><path cell-id="ViGWQ29Sq1G8j5HzgEND-1" d="M 1778 178 L 1778 180" fill="none" stroke="#000000" stroke-miterlimit="10" pointer-events="all"/><rect cell-id="ViGWQ29Sq1G8j5HzgEND-1" x="1775" y="180" width="7" height="4" fill="none" stroke="#000000" pointer-events="all"/><path cell-id="ViGWQ29Sq1G8j5HzgEND-1" d="M 1778 184 L 1778 187" fill="none" stroke="#000000" stroke-miterlimit="10" pointer-events="all"/></g><g shape-node=""><g cell-id="ViGWQ29Sq1G8j5HzgEND-1" fill="#000000" font-family="Helvetica" font-weight="bold" text-anchor="middle" font-size="12px"><text cell-id="ViGWQ29Sq1G8j5HzgEND-1" x="1715" y="181.5">&lt;&lt;component&gt;&gt;</text><text cell-id="ViGWQ29Sq1G8j5HzgEND-1" x="1715" y="195.5">  Restaurant Service</text></g></g><g shape-node=""><rect cell-id="ViGWQ29Sq1G8j5HzgEND-99" x="1651" y="210" width="12" height="12" fill="#7acff5" stroke="#000000" pointer-events="all"/></g><g shape-node=""><rect cell-id="ViGWQ29Sq1G8j5HzgEND-2" x="1653" y="368" width="139" height="50" fill="#7acff5" stroke="#000000" pointer-events="all"/><rect cell-id="ViGWQ29Sq1G8j5HzgEND-2" x="1653" y="368" width="139" height="50" fill="none" stroke="#000000" pointer-events="all"/><path cell-id="ViGWQ29Sq1G8j5HzgEND-2" d="M 1777 373 L 1787 373" fill="none" stroke="#000000" stroke-miterlimit="10" pointer-events="all"/><path cell-id="ViGWQ29Sq1G8j5HzgEND-2" d="M 1787 373 L 1787 389" fill="none" stroke="#000000" stroke-miterlimit="10" pointer-events="all"/><path cell-id="ViGWQ29Sq1G8j5HzgEND-2" d="M 1777 389 L 1787 389" fill="none" stroke="#000000" stroke-miterlimit="10" pointer-events="all"/><path cell-id="ViGWQ29Sq1G8j5HzgEND-2" d="M 1777 373 L 1777 376" fill="none" stroke="#000000" stroke-miterlimit="10" pointer-events="all"/><rect cell-id="ViGWQ29Sq1G8j5HzgEND-2" x="1774" y="376" width="7" height="4" fill="none" stroke="#000000" pointer-events="all"/><path cell-id="ViGWQ29Sq1G8j5HzgEND-2" d="M 1777 380 L 1777 382" fill="none" stroke="#000000" stroke-miterlimit="10" pointer-events="all"/><rect cell-id="ViGWQ29Sq1G8j5HzgEND-2" x="1774" y="382" width="7" height="4" fill="none" stroke="#000000" pointer-events="all"/><path cell-id="ViGWQ29Sq1G8j5HzgEND-2" d="M 1777 386 L 1777 389" fill="none" stroke="#000000" stroke-miterlimit="10" pointer-events="all"/></g><g shape-node=""><g cell-id="ViGWQ29Sq1G8j5HzgEND-2" fill="#000000" font-family="Helvetica" font-weight="bold" text-anchor="middle" font-size="12px"><text cell-id="ViGWQ29Sq1G8j5HzgEND-2" x="1712.5" y="383.5">&lt;&lt;component&gt;&gt;</text><text cell-id="ViGWQ29Sq1G8j5HzgEND-2" x="1712.5" y="397.5">Ordering Service</text></g></g><g shape-node=""><rect cell-id="ViGWQ29Sq1G8j5HzgEND-92" x="1786" y="393" width="12" height="12" fill="#7acff5" stroke="#000000" pointer-events="all"/></g><g shape-node=""><rect cell-id="ViGWQ29Sq1G8j5HzgEND-101" x="1647" y="412" width="12" height="12" fill="#7acff5" stroke="#000000" pointer-events="all"/></g><g shape-node=""><rect cell-id="ViGWQ29Sq1G8j5HzgEND-3" x="1656" y="479.5" width="136" height="50" fill="#7acff5" stroke="#000000" pointer-events="all"/><rect cell-id="ViGWQ29Sq1G8j5HzgEND-3" x="1656" y="479.5" width="136" height="50" fill="none" stroke="#000000" pointer-events="all"/><path cell-id="ViGWQ29Sq1G8j5HzgEND-3" d="M 1777 484.5 L 1787 484.5" fill="none" stroke="#000000" stroke-miterlimit="10" pointer-events="all"/><path cell-id="ViGWQ29Sq1G8j5HzgEND-3" d="M 1787 484.5 L 1787 500.5" fill="none" stroke="#000000" stroke-miterlimit="10" pointer-events="all"/><path cell-id="ViGWQ29Sq1G8j5HzgEND-3" d="M 1777 500.5 L 1787 500.5" fill="none" stroke="#000000" stroke-miterlimit="10" pointer-events="all"/><path cell-id="ViGWQ29Sq1G8j5HzgEND-3" d="M 1777 484.5 L 1777 487.5" fill="none" stroke="#000000" stroke-miterlimit="10" pointer-events="all"/><rect cell-id="ViGWQ29Sq1G8j5HzgEND-3" x="1774" y="487.5" width="7" height="4" fill="none" stroke="#000000" pointer-events="all"/><path cell-id="ViGWQ29Sq1G8j5HzgEND-3" d="M 1777 491.5 L 1777 493.5" fill="none" stroke="#000000" stroke-miterlimit="10" pointer-events="all"/><rect cell-id="ViGWQ29Sq1G8j5HzgEND-3" x="1774" y="493.5" width="7" height="4" fill="none" stroke="#000000" pointer-events="all"/><path cell-id="ViGWQ29Sq1G8j5HzgEND-3" d="M 1777 497.5 L 1777 500.5" fill="none" stroke="#000000" stroke-miterlimit="10" pointer-events="all"/></g><g shape-node=""><g cell-id="ViGWQ29Sq1G8j5HzgEND-3" fill="#000000" font-family="Helvetica" font-weight="bold" text-anchor="middle" font-size="12px"><text cell-id="ViGWQ29Sq1G8j5HzgEND-3" x="1714" y="495">&lt;&lt;component&gt;&gt;</text><text cell-id="ViGWQ29Sq1G8j5HzgEND-3" x="1714" y="509">Payment Proxy</text></g></g><g shape-node=""><rect cell-id="ViGWQ29Sq1G8j5HzgEND-84" x="1716.5" y="473" width="12" height="12" fill="#7acff5" stroke="#000000" pointer-events="all"/></g><g shape-node=""><rect cell-id="ViGWQ29Sq1G8j5HzgEND-102" x="1650" y="523.5" width="12" height="12" fill="#7acff5" stroke="#000000" pointer-events="all"/></g><g shape-node=""><rect cell-id="ViGWQ29Sq1G8j5HzgEND-4" x="1657" y="259.5" width="136" height="50" fill="#7acff5" stroke="#000000" pointer-events="all"/><rect cell-id="ViGWQ29Sq1G8j5HzgEND-4" x="1657" y="259.5" width="136" height="50" fill="none" stroke="#000000" pointer-events="all"/><path cell-id="ViGWQ29Sq1G8j5HzgEND-4" d="M 1778 264.5 L 1788 264.5" fill="none" stroke="#000000" stroke-miterlimit="10" pointer-events="all"/><path cell-id="ViGWQ29Sq1G8j5HzgEND-4" d="M 1788 264.5 L 1788 280.5" fill="none" stroke="#000000" stroke-miterlimit="10" pointer-events="all"/><path cell-id="ViGWQ29Sq1G8j5HzgEND-4" d="M 1778 280.5 L 1788 280.5" fill="none" stroke="#000000" stroke-miterlimit="10" pointer-events="all"/><path cell-id="ViGWQ29Sq1G8j5HzgEND-4" d="M 1778 264.5 L 1778 267.5" fill="none" stroke="#000000" stroke-miterlimit="10" pointer-events="all"/><rect cell-id="ViGWQ29Sq1G8j5HzgEND-4" x="1775" y="267.5" width="7" height="4" fill="none" stroke="#000000" pointer-events="all"/><path cell-id="ViGWQ29Sq1G8j5HzgEND-4" d="M 1778 271.5 L 1778 273.5" fill="none" stroke="#000000" stroke-miterlimit="10" pointer-events="all"/><rect cell-id="ViGWQ29Sq1G8j5HzgEND-4" x="1775" y="273.5" width="7" height="4" fill="none" stroke="#000000" pointer-events="all"/><path cell-id="ViGWQ29Sq1G8j5HzgEND-4" d="M 1778 277.5 L 1778 280.5" fill="none" stroke="#000000" stroke-miterlimit="10" pointer-events="all"/></g><g shape-node=""><g cell-id="ViGWQ29Sq1G8j5HzgEND-4" fill="#000000" font-family="Helvetica" font-weight="bold" text-anchor="middle" font-size="12px"><text cell-id="ViGWQ29Sq1G8j5HzgEND-4" x="1715" y="275">&lt;&lt;component&gt;&gt;</text><text cell-id="ViGWQ29Sq1G8j5HzgEND-4" x="1715" y="289">Delivery Proxy</text></g></g><g shape-node=""><rect cell-id="ViGWQ29Sq1G8j5HzgEND-47" x="1651" y="266" width="12" height="12" fill="#7acff5" stroke="#000000" pointer-events="all"/></g><g shape-node=""><rect cell-id="ViGWQ29Sq1G8j5HzgEND-83" x="1716.5" y="303" width="12" height="12" fill="#7acff5" stroke="#000000" pointer-events="all"/></g><g shape-node=""><rect cell-id="ViGWQ29Sq1G8j5HzgEND-100" x="1651" y="303" width="12" height="12" fill="#7acff5" stroke="#000000" pointer-events="all"/></g><g shape-node=""><rect cell-id="ViGWQ29Sq1G8j5HzgEND-5" x="1951" y="254.5" width="149" height="55" fill="#ffdc8c" stroke="#ddab38" pointer-events="all"/><rect cell-id="ViGWQ29Sq1G8j5HzgEND-5" x="1951" y="254.5" width="149" height="55" fill="none" stroke="#ddab38" pointer-events="all"/><path cell-id="ViGWQ29Sq1G8j5HzgEND-5" d="M 2085 259.5 L 2095 259.5" fill="none" stroke="#ddab38" stroke-miterlimit="10" pointer-events="all"/><path cell-id="ViGWQ29Sq1G8j5HzgEND-5" d="M 2095 259.5 L 2095 275.5" fill="none" stroke="#ddab38" stroke-miterlimit="10" pointer-events="all"/><path cell-id="ViGWQ29Sq1G8j5HzgEND-5" d="M 2085 275.5 L 2095 275.5" fill="none" stroke="#ddab38" stroke-miterlimit="10" pointer-events="all"/><path cell-id="ViGWQ29Sq1G8j5HzgEND-5" d="M 2085 259.5 L 2085 262.5" fill="none" stroke="#ddab38" stroke-miterlimit="10" pointer-events="all"/><rect cell-id="ViGWQ29Sq1G8j5HzgEND-5" x="2082" y="262.5" width="7" height="4" fill="none" stroke="#ddab38" pointer-events="all"/><path cell-id="ViGWQ29Sq1G8j5HzgEND-5" d="M 2085 266.5 L 2085 268.5" fill="none" stroke="#ddab38" stroke-miterlimit="10" pointer-events="all"/><rect cell-id="ViGWQ29Sq1G8j5HzgEND-5" x="2082" y="268.5" width="7" height="4" fill="none" stroke="#ddab38" pointer-events="all"/><path cell-id="ViGWQ29Sq1G8j5HzgEND-5" d="M 2085 272.5 L 2085 275.5" fill="none" stroke="#ddab38" stroke-miterlimit="10" pointer-events="all"/></g><g shape-node=""><g cell-id="ViGWQ29Sq1G8j5HzgEND-5" fill="#000000" font-family="Helvetica" font-weight="bold" text-anchor="middle" font-size="12px"><text cell-id="ViGWQ29Sq1G8j5HzgEND-5" x="2015.5" y="270">&lt;&lt;component&gt;&gt;</text><text cell-id="ViGWQ29Sq1G8j5HzgEND-5" x="2015.5" y="284">3rd Party </text><text cell-id="ViGWQ29Sq1G8j5HzgEND-5" x="2015.5" y="298">Delivery Service</text></g></g><g shape-node=""><rect cell-id="ViGWQ29Sq1G8j5HzgEND-38" x="1945" y="277.5" width="12" height="12" fill="#ffdc8c" stroke="#ddab38" pointer-events="all"/></g><g shape-node=""><rect cell-id="ViGWQ29Sq1G8j5HzgEND-6" x="1951" y="474.5" width="149" height="55" fill="#ffdc8c" stroke="#ddab38" pointer-events="all"/><rect cell-id="ViGWQ29Sq1G8j5HzgEND-6" x="1951" y="474.5" width="149" height="55" fill="none" stroke="#ddab38" pointer-events="all"/><path cell-id="ViGWQ29Sq1G8j5HzgEND-6" d="M 2085 479.5 L 2095 479.5" fill="none" stroke="#ddab38" stroke-miterlimit="10" pointer-events="all"/><path cell-id="ViGWQ29Sq1G8j5HzgEND-6" d="M 2095 479.5 L 2095 495.5" fill="none" stroke="#ddab38" stroke-miterlimit="10" pointer-events="all"/><path cell-id="ViGWQ29Sq1G8j5HzgEND-6" d="M 2085 495.5 L 2095 495.5" fill="none" stroke="#ddab38" stroke-miterlimit="10" pointer-events="all"/><path cell-id="ViGWQ29Sq1G8j5HzgEND-6" d="M 2085 479.5 L 2085 482.5" fill="none" stroke="#ddab38" stroke-miterlimit="10" pointer-events="all"/><rect cell-id="ViGWQ29Sq1G8j5HzgEND-6" x="2082" y="482.5" width="7" height="4" fill="none" stroke="#ddab38" pointer-events="all"/><path cell-id="ViGWQ29Sq1G8j5HzgEND-6" d="M 2085 486.5 L 2085 488.5" fill="none" stroke="#ddab38" stroke-miterlimit="10" pointer-events="all"/><rect cell-id="ViGWQ29Sq1G8j5HzgEND-6" x="2082" y="488.5" width="7" height="4" fill="none" stroke="#ddab38" pointer-events="all"/><path cell-id="ViGWQ29Sq1G8j5HzgEND-6" d="M 2085 492.5 L 2085 495.5" fill="none" stroke="#ddab38" stroke-miterlimit="10" pointer-events="all"/></g><g shape-node=""><g cell-id="ViGWQ29Sq1G8j5HzgEND-6" fill="#000000" font-family="Helvetica" font-weight="bold" text-anchor="middle" font-size="12px"><text cell-id="ViGWQ29Sq1G8j5HzgEND-6" x="2015.5" y="490">&lt;&lt;component&gt;&gt;</text><text cell-id="ViGWQ29Sq1G8j5HzgEND-6" x="2015.5" y="504">3rd Party </text><text cell-id="ViGWQ29Sq1G8j5HzgEND-6" x="2015.5" y="518">Ordering Service</text></g></g><g shape-node=""><rect cell-id="ViGWQ29Sq1G8j5HzgEND-15" x="1945" y="496.68" width="12" height="12" fill="#ffdc8c" stroke="#ddab38" pointer-events="all"/></g><g shape-node=""><path cell-id="ViGWQ29Sq1G8j5HzgEND-41" d="M 1911 283.5 L 1945 283.5" fill="none" stroke="#000000" stroke-miterlimit="10" pointer-events="stroke"/></g><g shape-node=""><ellipse cell-id="ViGWQ29Sq1G8j5HzgEND-39" cx="1901" cy="283.5" rx="10" ry="10" fill="#ffdc8c" stroke="#ddab38" pointer-events="all"/><ellipse cell-id="ViGWQ29Sq1G8j5HzgEND-39" cx="1901" cy="283.5" rx="10" ry="10" fill="none" stroke="#ddab38" pointer-events="all"/></g><g shape-node=""><path cell-id="ViGWQ29Sq1G8j5HzgEND-42" d="M 1911.06 503.12 L 1945 503.12" fill="none" stroke="#000000" stroke-miterlimit="10" pointer-events="stroke"/></g><g shape-node=""><ellipse cell-id="ViGWQ29Sq1G8j5HzgEND-27" cx="1901" cy="503.5" rx="10" ry="10" fill="#ffdc8c" stroke="#ddab38" pointer-events="all"/><ellipse cell-id="ViGWQ29Sq1G8j5HzgEND-27" cx="1901" cy="503.5" rx="10" ry="10" fill="none" stroke="#ddab38" pointer-events="all"/></g><g shape-node=""><path cell-id="ViGWQ29Sq1G8j5HzgEND-43" d="M 1793 284.11 L 1886 283.59" fill="none" stroke="#000000" stroke-miterlimit="10" pointer-events="stroke"/><path cell-id="ViGWQ29Sq1G8j5HzgEND-43" d="M 1901.09 298.5 C 1895.73 298.53 1890.76 295.7 1888.06 291.07 C 1885.35 286.45 1885.32 280.73 1887.97 276.07 C 1890.62 271.42 1895.56 268.53 1900.92 268.5" fill="none" stroke="#000000" stroke-miterlimit="10" pointer-events="all"/></g><g shape-node=""><path cell-id="ViGWQ29Sq1G8j5HzgEND-44" d="M 1792 504.12 L 1886 503.58" fill="none" stroke="#000000" stroke-miterlimit="10" pointer-events="stroke"/><path cell-id="ViGWQ29Sq1G8j5HzgEND-44" d="M 1901.08 518.5 C 1892.8 518.55 1886.05 511.87 1886 503.58 C 1885.95 495.3 1892.63 488.55 1900.92 488.5" fill="none" stroke="#000000" stroke-miterlimit="10" pointer-events="all"/></g><g shape-node=""><ellipse cell-id="ViGWQ29Sq1G8j5HzgEND-46" cx="1559" cy="271.5" rx="10" ry="10" fill="#7acff5" stroke="#000000" pointer-events="all"/><ellipse cell-id="ViGWQ29Sq1G8j5HzgEND-46" cx="1559" cy="271.5" rx="10" ry="10" fill="none" stroke="#000000" pointer-events="all"/></g><g shape-node=""><g cell-id="ViGWQ29Sq1G8j5HzgEND-46" fill="#000000" font-family="Helvetica" font-weight="bold" text-anchor="middle" font-size="12px"><text cell-id="ViGWQ29Sq1G8j5HzgEND-46" x="1558.5" y="299">REST API</text></g></g><g shape-node=""><path cell-id="ViGWQ29Sq1G8j5HzgEND-48" d="M 1568.94 271.76 L 1651 271.76" fill="none" stroke="#000000" stroke-miterlimit="10" pointer-events="stroke"/></g><g shape-node=""><rect cell-id="ViGWQ29Sq1G8j5HzgEND-49" x="1650" y="172" width="12" height="12" fill="#7acff5" stroke="#000000" pointer-events="all"/></g><g shape-node=""><ellipse cell-id="ViGWQ29Sq1G8j5HzgEND-50" cx="1558" cy="178" rx="10" ry="10" fill="#7acff5" stroke="#000000" pointer-events="all"/><ellipse cell-id="ViGWQ29Sq1G8j5HzgEND-50" cx="1558" cy="178" rx="10" ry="10" fill="none" stroke="#000000" pointer-events="all"/></g><g shape-node=""><g cell-id="ViGWQ29Sq1G8j5HzgEND-50" fill="#000000" font-family="Helvetica" font-weight="bold" text-anchor="middle" font-size="12px"><text cell-id="ViGWQ29Sq1G8j5HzgEND-50" x="1557.5" y="205.5">REST API</text></g></g><g shape-node=""><path cell-id="ViGWQ29Sq1G8j5HzgEND-51" d="M 1568 178 L 1650 178" fill="none" stroke="#000000" stroke-miterlimit="10" pointer-events="stroke"/></g><g shape-node=""><rect cell-id="ViGWQ29Sq1G8j5HzgEND-52" x="1647" y="374" width="12" height="12" fill="#7acff5" stroke="#000000" pointer-events="all"/></g><g shape-node=""><ellipse cell-id="ViGWQ29Sq1G8j5HzgEND-53" cx="1558" cy="380" rx="10" ry="10" fill="#7acff5" stroke="#000000" pointer-events="all"/><ellipse cell-id="ViGWQ29Sq1G8j5HzgEND-53" cx="1558" cy="380" rx="10" ry="10" fill="none" stroke="#000000" pointer-events="all"/></g><g shape-node=""><g cell-id="ViGWQ29Sq1G8j5HzgEND-53" fill="#000000" font-family="Helvetica" font-weight="bold" text-anchor="middle" font-size="12px"><text cell-id="ViGWQ29Sq1G8j5HzgEND-53" x="1557.5" y="407.5">REST API</text></g></g><g shape-node=""><path cell-id="ViGWQ29Sq1G8j5HzgEND-54" d="M 1568 380 L 1647 380" fill="none" stroke="#000000" stroke-miterlimit="10" pointer-events="stroke"/></g><g shape-node=""><rect cell-id="ViGWQ29Sq1G8j5HzgEND-55" x="1650" y="485.5" width="12" height="12" fill="#7acff5" stroke="#000000" pointer-events="all"/></g><g shape-node=""><ellipse cell-id="ViGWQ29Sq1G8j5HzgEND-56" cx="1558" cy="491.5" rx="10" ry="10" fill="#7acff5" stroke="#000000" pointer-events="all"/><ellipse cell-id="ViGWQ29Sq1G8j5HzgEND-56" cx="1558" cy="491.5" rx="10" ry="10" fill="none" stroke="#000000" pointer-events="all"/></g><g shape-node=""><g cell-id="ViGWQ29Sq1G8j5HzgEND-56" fill="#000000" font-family="Helvetica" font-weight="bold" text-anchor="middle" font-size="12px"><text cell-id="ViGWQ29Sq1G8j5HzgEND-56" x="1557.5" y="519">REST API</text></g></g><g shape-node=""><path cell-id="ViGWQ29Sq1G8j5HzgEND-57" d="M 1568 491.5 L 1650 491.5" fill="none" stroke="#000000" stroke-miterlimit="10" pointer-events="stroke"/></g><g shape-node=""><path cell-id="ViGWQ29Sq1G8j5HzgEND-62" d="M 1410 360 L 1410 178.5 L 1543 178.05" fill="none" stroke="#000000" stroke-miterlimit="10" pointer-events="stroke"/><path cell-id="ViGWQ29Sq1G8j5HzgEND-62" d="M 1558.05 193 C 1552.69 193.02 1547.73 190.18 1545.04 185.54 C 1542.34 180.91 1542.32 175.19 1544.98 170.54 C 1547.65 165.89 1552.59 163.02 1557.95 163" fill="none" stroke="#000000" stroke-miterlimit="10" pointer-events="all"/></g><g shape-node=""><path cell-id="ViGWQ29Sq1G8j5HzgEND-63" d="M 1410 360 L 1410 271.5 L 1544 271.5" fill="none" stroke="#000000" stroke-miterlimit="10" pointer-events="stroke"/><path cell-id="ViGWQ29Sq1G8j5HzgEND-63" d="M 1559 286.5 C 1550.72 286.5 1544 279.78 1544 271.5 C 1544 263.22 1550.72 256.5 1559 256.5" fill="none" stroke="#000000" stroke-miterlimit="10" pointer-events="all"/></g><g shape-node=""><path cell-id="ViGWQ29Sq1G8j5HzgEND-64" d="M 1478 380 L 1543 380" fill="none" stroke="#000000" stroke-miterlimit="10" pointer-events="stroke"/><path cell-id="ViGWQ29Sq1G8j5HzgEND-64" d="M 1558 395 C 1549.72 395 1543 388.28 1543 380 C 1543 371.72 1549.72 365 1558 365" fill="none" stroke="#000000" stroke-miterlimit="10" pointer-events="all"/></g><g shape-node=""><path cell-id="ViGWQ29Sq1G8j5HzgEND-65" d="M 1410 400 L 1410 491.5 L 1543 491.5" fill="none" stroke="#000000" stroke-miterlimit="10" pointer-events="stroke"/><path cell-id="ViGWQ29Sq1G8j5HzgEND-65" d="M 1558 506.5 C 1549.72 506.5 1543 499.78 1543 491.5 C 1543 483.22 1549.72 476.5 1558 476.5" fill="none" stroke="#000000" stroke-miterlimit="10" pointer-events="all"/></g><g shape-node=""><rect cell-id="ViGWQ29Sq1G8j5HzgEND-66" x="1132" y="241.5" width="136" height="40" fill="#dfefca" stroke="#000000" pointer-events="all"/><rect cell-id="ViGWQ29Sq1G8j5HzgEND-66" x="1132" y="241.5" width="136" height="40" fill="none" stroke="#000000" pointer-events="all"/><path cell-id="ViGWQ29Sq1G8j5HzgEND-66" d="M 1253 246.5 L 1263 246.5" fill="none" stroke="#000000" stroke-miterlimit="10" pointer-events="all"/><path cell-id="ViGWQ29Sq1G8j5HzgEND-66" d="M 1263 246.5 L 1263 262.5" fill="none" stroke="#000000" stroke-miterlimit="10" pointer-events="all"/><path cell-id="ViGWQ29Sq1G8j5HzgEND-66" d="M 1253 262.5 L 1263 262.5" fill="none" stroke="#000000" stroke-miterlimit="10" pointer-events="all"/><path cell-id="ViGWQ29Sq1G8j5HzgEND-66" d="M 1253 246.5 L 1253 249.5" fill="none" stroke="#000000" stroke-miterlimit="10" pointer-events="all"/><rect cell-id="ViGWQ29Sq1G8j5HzgEND-66" x="1250" y="249.5" width="7" height="4" fill="none" stroke="#000000" pointer-events="all"/><path cell-id="ViGWQ29Sq1G8j5HzgEND-66" d="M 1253 253.5 L 1253 255.5" fill="none" stroke="#000000" stroke-miterlimit="10" pointer-events="all"/><rect cell-id="ViGWQ29Sq1G8j5HzgEND-66" x="1250" y="255.5" width="7" height="4" fill="none" stroke="#000000" pointer-events="all"/><path cell-id="ViGWQ29Sq1G8j5HzgEND-66" d="M 1253 259.5 L 1253 262.5" fill="none" stroke="#000000" stroke-miterlimit="10" pointer-events="all"/></g><g shape-node=""><g cell-id="ViGWQ29Sq1G8j5HzgEND-66" fill="#000000" font-family="Helvetica" font-weight="bold" text-anchor="middle" font-size="12px"><text cell-id="ViGWQ29Sq1G8j5HzgEND-66" x="1190" y="257">&lt;&lt;component&gt;&gt;</text><text cell-id="ViGWQ29Sq1G8j5HzgEND-66" x="1190" y="271">Web Service</text></g></g><g shape-node=""><ellipse cell-id="ViGWQ29Sq1G8j5HzgEND-85" cx="1722.5" cy="335.5" rx="10" ry="10" fill="#7acff5" stroke="#000000" pointer-events="all"/><ellipse cell-id="ViGWQ29Sq1G8j5HzgEND-85" cx="1722.5" cy="335.5" rx="10" ry="10" fill="none" stroke="#000000" pointer-events="all"/></g><g shape-node=""><path cell-id="ViGWQ29Sq1G8j5HzgEND-88" d="M 1722.76 454.47 L 1722.76 473" fill="none" stroke="#000000" stroke-miterlimit="10" pointer-events="stroke"/></g><g shape-node=""><ellipse cell-id="ViGWQ29Sq1G8j5HzgEND-86" cx="1723" cy="444.5" rx="10" ry="10" fill="#7acff5" stroke="#000000" pointer-events="all"/><ellipse cell-id="ViGWQ29Sq1G8j5HzgEND-86" cx="1723" cy="444.5" rx="10" ry="10" fill="none" stroke="#000000" pointer-events="all"/></g><g shape-node=""><path cell-id="ViGWQ29Sq1G8j5HzgEND-90" d="M 1722.5 368 L 1722.5 350.5" fill="none" stroke="#000000" stroke-miterlimit="10" pointer-events="stroke"/><path cell-id="ViGWQ29Sq1G8j5HzgEND-90" d="M 1737.5 335.5 C 1737.5 343.78 1730.78 350.5 1722.5 350.5 C 1714.22 350.5 1707.5 343.78 1707.5 335.5" fill="none" stroke="#000000" stroke-miterlimit="10" pointer-events="all"/></g><g shape-node=""><path cell-id="ViGWQ29Sq1G8j5HzgEND-91" d="M 1722.74 418 L 1722.85 429.5" fill="none" stroke="#000000" stroke-miterlimit="10" pointer-events="stroke"/><path cell-id="ViGWQ29Sq1G8j5HzgEND-91" d="M 1708 444.65 C 1707.95 439.29 1710.76 434.31 1715.37 431.58 C 1719.99 428.86 1725.71 428.8 1730.37 431.44 C 1735.04 434.07 1737.95 439 1738 444.35" fill="none" stroke="#000000" stroke-miterlimit="10" pointer-events="all"/></g><g shape-node=""><ellipse cell-id="ViGWQ29Sq1G8j5HzgEND-93" cx="1852" cy="399" rx="10" ry="10" fill="#7acff5" stroke="#000000" pointer-events="all"/><ellipse cell-id="ViGWQ29Sq1G8j5HzgEND-93" cx="1852" cy="399" rx="10" ry="10" fill="none" stroke="#000000" pointer-events="all"/></g><g shape-node=""><path cell-id="ViGWQ29Sq1G8j5HzgEND-95" d="M 1842 399 L 1798 399" fill="none" stroke="#000000" stroke-miterlimit="10" pointer-events="stroke"/></g><g shape-node=""><path cell-id="ViGWQ29Sq1G8j5HzgEND-96" d="M 1793 191.27 L 1852 191.5 L 1852 384" fill="none" stroke="#000000" stroke-miterlimit="10" pointer-events="stroke"/><path cell-id="ViGWQ29Sq1G8j5HzgEND-96" d="M 1837 399 C 1837 390.72 1843.72 384 1852 384 C 1860.28 384 1867 390.72 1867 399" fill="none" stroke="#000000" stroke-miterlimit="10" pointer-events="all"/></g><g shape-node=""><rect cell-id="ViGWQ29Sq1G8j5HzgEND-98" x="1536" y="636.5" width="136" height="40" fill="#dfefca" stroke="#000000" pointer-events="all"/><rect cell-id="ViGWQ29Sq1G8j5HzgEND-98" x="1536" y="636.5" width="136" height="40" fill="none" stroke="#000000" pointer-events="all"/><path cell-id="ViGWQ29Sq1G8j5HzgEND-98" d="M 1657 641.5 L 1667 641.5" fill="none" stroke="#000000" stroke-miterlimit="10" pointer-events="all"/><path cell-id="ViGWQ29Sq1G8j5HzgEND-98" d="M 1667 641.5 L 1667 657.5" fill="none" stroke="#000000" stroke-miterlimit="10" pointer-events="all"/><path cell-id="ViGWQ29Sq1G8j5HzgEND-98" d="M 1657 657.5 L 1667 657.5" fill="none" stroke="#000000" stroke-miterlimit="10" pointer-events="all"/><path cell-id="ViGWQ29Sq1G8j5HzgEND-98" d="M 1657 641.5 L 1657 644.5" fill="none" stroke="#000000" stroke-miterlimit="10" pointer-events="all"/><rect cell-id="ViGWQ29Sq1G8j5HzgEND-98" x="1654" y="644.5" width="7" height="4" fill="none" stroke="#000000" pointer-events="all"/><path cell-id="ViGWQ29Sq1G8j5HzgEND-98" d="M 1657 648.5 L 1657 650.5" fill="none" stroke="#000000" stroke-miterlimit="10" pointer-events="all"/><rect cell-id="ViGWQ29Sq1G8j5HzgEND-98" x="1654" y="650.5" width="7" height="4" fill="none" stroke="#000000" pointer-events="all"/><path cell-id="ViGWQ29Sq1G8j5HzgEND-98" d="M 1657 654.5 L 1657 657.5" fill="none" stroke="#000000" stroke-miterlimit="10" pointer-events="all"/></g><g shape-node=""><g cell-id="ViGWQ29Sq1G8j5HzgEND-98" fill="#000000" font-family="Helvetica" font-weight="bold" text-anchor="middle" font-size="12px"><text cell-id="ViGWQ29Sq1G8j5HzgEND-98" x="1594" y="652">&lt;&lt;component&gt;&gt;</text><text cell-id="ViGWQ29Sq1G8j5HzgEND-98" x="1594" y="666">Service Registry</text></g></g><g shape-node=""><rect cell-id="ViGWQ29Sq1G8j5HzgEND-105" x="1598" y="629.5" width="12" height="12" fill="#dfefca" stroke="#000000" pointer-events="all"/></g><g shape-node=""><ellipse cell-id="ViGWQ29Sq1G8j5HzgEND-103" cx="1604" cy="592.5" rx="10" ry="10" fill="#dfefca" stroke="#000000" pointer-events="all"/><ellipse cell-id="ViGWQ29Sq1G8j5HzgEND-103" cx="1604" cy="592.5" rx="10" ry="10" fill="none" stroke="#000000" pointer-events="all"/></g><g shape-node=""><path cell-id="ViGWQ29Sq1G8j5HzgEND-106" d="M 1604 602.5 L 1604 629.5" fill="none" stroke="#000000" stroke-miterlimit="10" pointer-events="stroke"/></g><g shape-node=""><path cell-id="ViGWQ29Sq1G8j5HzgEND-107" d="M 1651 216.06 L 1604 216.5 L 1604 577.5" fill="none" stroke="#000000" stroke-miterlimit="10" pointer-events="stroke"/><path cell-id="ViGWQ29Sq1G8j5HzgEND-107" d="M 1589 592.5 C 1589 584.22 1595.72 577.5 1604 577.5 C 1612.28 577.5 1619 584.22 1619 592.5" fill="none" stroke="#000000" stroke-miterlimit="10" pointer-events="all"/></g><g shape-node=""><path cell-id="ViGWQ29Sq1G8j5HzgEND-108" d="M 1651 308.94 L 1604 308.5 L 1604 577.5" fill="none" stroke="#000000" stroke-miterlimit="10" pointer-events="stroke"/><path cell-id="ViGWQ29Sq1G8j5HzgEND-108" d="M 1589 592.5 C 1589 584.22 1595.72 577.5 1604 577.5 C 1612.28 577.5 1619 584.22 1619 592.5" fill="none" stroke="#000000" stroke-miterlimit="10" pointer-events="all"/></g><g shape-node=""><path cell-id="ViGWQ29Sq1G8j5HzgEND-109" d="M 1647 418.06 L 1604 418.5 L 1604 577.5" fill="none" stroke="#000000" stroke-miterlimit="10" pointer-events="stroke"/><path cell-id="ViGWQ29Sq1G8j5HzgEND-109" d="M 1589 592.5 C 1589 584.22 1595.72 577.5 1604 577.5 C 1612.28 577.5 1619 584.22 1619 592.5" fill="none" stroke="#000000" stroke-miterlimit="10" pointer-events="all"/></g><g shape-node=""><path cell-id="ViGWQ29Sq1G8j5HzgEND-110" d="M 1650 529.5 L 1604 529.5 L 1604 577.5" fill="none" stroke="#000000" stroke-miterlimit="10" pointer-events="stroke"/><path cell-id="ViGWQ29Sq1G8j5HzgEND-110" d="M 1589 592.5 C 1589 584.22 1595.72 577.5 1604 577.5 C 1612.28 577.5 1619 584.22 1619 592.5" fill="none" stroke="#000000" stroke-miterlimit="10" pointer-events="all"/></g><g shape-node=""><path cell-id="ViGWQ29Sq1G8j5HzgEND-111" d="M 1410 400 L 1410 592.5 L 1589 592.5" fill="none" stroke="#000000" stroke-miterlimit="10" pointer-events="stroke"/><path cell-id="ViGWQ29Sq1G8j5HzgEND-111" d="M 1604 607.5 C 1595.72 607.5 1589 600.78 1589 592.5 C 1589 584.22 1595.72 577.5 1604 577.5" fill="none" stroke="#000000" stroke-miterlimit="10" pointer-events="all"/></g><g shape-node=""><rect cell-id="ViGWQ29Sq1G8j5HzgEND-112" x="0" y="0" width="136" height="40" fill="#7acff5" stroke="#000000" pointer-events="all"/><rect cell-id="ViGWQ29Sq1G8j5HzgEND-112" x="0" y="0" width="136" height="40" fill="none" stroke="#000000" pointer-events="all"/><path cell-id="ViGWQ29Sq1G8j5HzgEND-112" d="M 121 5 L 131 5" fill="none" stroke="#000000" stroke-miterlimit="10" pointer-events="all"/><path cell-id="ViGWQ29Sq1G8j5HzgEND-112" d="M 131 5 L 131 21" fill="none" stroke="#000000" stroke-miterlimit="10" pointer-events="all"/><path cell-id="ViGWQ29Sq1G8j5HzgEND-112" d="M 121 21 L 131 21" fill="none" stroke="#000000" stroke-miterlimit="10" pointer-events="all"/><path cell-id="ViGWQ29Sq1G8j5HzgEND-112" d="M 121 5 L 121 8" fill="none" stroke="#000000" stroke-miterlimit="10" pointer-events="all"/><rect cell-id="ViGWQ29Sq1G8j5HzgEND-112" x="118" y="8" width="7" height="4" fill="none" stroke="#000000" pointer-events="all"/><path cell-id="ViGWQ29Sq1G8j5HzgEND-112" d="M 121 12 L 121 14" fill="none" stroke="#000000" stroke-miterlimit="10" pointer-events="all"/><rect cell-id="ViGWQ29Sq1G8j5HzgEND-112" x="118" y="14" width="7" height="4" fill="none" stroke="#000000" pointer-events="all"/><path cell-id="ViGWQ29Sq1G8j5HzgEND-112" d="M 121 18 L 121 21" fill="none" stroke="#000000" stroke-miterlimit="10" pointer-events="all"/></g><g shape-node=""><g cell-id="ViGWQ29Sq1G8j5HzgEND-112" fill="#000000" font-family="Helvetica" font-weight="bold" text-anchor="middle" font-size="12px"><text cell-id="ViGWQ29Sq1G8j5HzgEND-112" x="58" y="15.5">&lt;&lt;component&gt;&gt;</text><text cell-id="ViGWQ29Sq1G8j5HzgEND-112" x="58" y="29.5">Component</text></g></g><g shape-node=""><rect cell-id="d2wP55hhnIWn4dpN-6_s-2" x="1132" y="474.5" width="136" height="40" fill="#dfefca" stroke="#000000" pointer-events="all"/><rect cell-id="d2wP55hhnIWn4dpN-6_s-2" x="1132" y="474.5" width="136" height="40" fill="none" stroke="#000000" pointer-events="all"/><path cell-id="d2wP55hhnIWn4dpN-6_s-2" d="M 1253 479.5 L 1263 479.5" fill="none" stroke="#000000" stroke-miterlimit="10" pointer-events="all"/><path cell-id="d2wP55hhnIWn4dpN-6_s-2" d="M 1263 479.5 L 1263 495.5" fill="none" stroke="#000000" stroke-miterlimit="10" pointer-events="all"/><path cell-id="d2wP55hhnIWn4dpN-6_s-2" d="M 1253 495.5 L 1263 495.5" fill="none" stroke="#000000" stroke-miterlimit="10" pointer-events="all"/><path cell-id="d2wP55hhnIWn4dpN-6_s-2" d="M 1253 479.5 L 1253 482.5" fill="none" stroke="#000000" stroke-miterlimit="10" pointer-events="all"/><rect cell-id="d2wP55hhnIWn4dpN-6_s-2" x="1250" y="482.5" width="7" height="4" fill="none" stroke="#000000" pointer-events="all"/><path cell-id="d2wP55hhnIWn4dpN-6_s-2" d="M 1253 486.5 L 1253 488.5" fill="none" stroke="#000000" stroke-miterlimit="10" pointer-events="all"/><rect cell-id="d2wP55hhnIWn4dpN-6_s-2" x="1250" y="488.5" width="7" height="4" fill="none" stroke="#000000" pointer-events="all"/><path cell-id="d2wP55hhnIWn4dpN-6_s-2" d="M 1253 492.5 L 1253 495.5" fill="none" stroke="#000000" stroke-miterlimit="10" pointer-events="all"/></g><g shape-node=""><g cell-id="d2wP55hhnIWn4dpN-6_s-2" fill="#000000" font-family="Helvetica" font-weight="bold" text-anchor="middle" font-size="12px"><text cell-id="d2wP55hhnIWn4dpN-6_s-2" x="1190" y="490">&lt;&lt;component&gt;&gt;</text><text cell-id="d2wP55hhnIWn4dpN-6_s-2" x="1190" y="504">REST Client</text></g></g><g shape-node=""><ellipse cell-id="d2wP55hhnIWn4dpN-6_s-3" cx="1273" cy="380" rx="10" ry="10" fill="#7acff5" stroke="#000000" pointer-events="all"/><ellipse cell-id="d2wP55hhnIWn4dpN-6_s-3" cx="1273" cy="380" rx="10" ry="10" fill="none" stroke="#000000" pointer-events="all"/></g><g shape-node=""><path cell-id="d2wP55hhnIWn4dpN-6_s-6" d="M 1283 380 L 1337 380" fill="none" stroke="#000000" stroke-miterlimit="10" pointer-events="stroke"/></g><g shape-node=""><path cell-id="d2wP55hhnIWn4dpN-6_s-7" d="M 1200 474.5 L 1200 380.5 L 1258 380.1" fill="none" stroke="#000000" stroke-miterlimit="10" pointer-events="stroke"/><path cell-id="d2wP55hhnIWn4dpN-6_s-7" d="M 1273.1 395 C 1267.74 395.04 1262.77 392.21 1260.06 387.59 C 1257.35 382.97 1257.31 377.25 1259.96 372.59 C 1262.61 367.93 1267.54 365.04 1272.9 365" fill="none" stroke="#000000" stroke-miterlimit="10" pointer-events="all"/></g><g shape-node=""><path cell-id="d2wP55hhnIWn4dpN-6_s-9" d="M 1200 281.5 L 1200 380.5 L 1258 380.1" fill="none" stroke="#000000" stroke-miterlimit="10" pointer-events="stroke"/><path cell-id="d2wP55hhnIWn4dpN-6_s-9" d="M 1273.1 395 C 1267.74 395.04 1262.77 392.21 1260.06 387.59 C 1257.35 382.97 1257.31 377.25 1259.96 372.59 C 1262.61 367.93 1267.54 365.04 1272.9 365" fill="none" stroke="#000000" stroke-miterlimit="10" pointer-events="all"/></g><g shape-node=""><rect cell-id="d2wP55hhnIWn4dpN-6_s-10" x="3106" y="0" width="136" height="40" fill="#7acff5" stroke="#000000" pointer-events="all"/><rect cell-id="d2wP55hhnIWn4dpN-6_s-10" x="3106" y="0" width="136" height="40" fill="none" stroke="#000000" pointer-events="all"/><path cell-id="d2wP55hhnIWn4dpN-6_s-10" d="M 3227 5 L 3237 5" fill="none" stroke="#000000" stroke-miterlimit="10" pointer-events="all"/><path cell-id="d2wP55hhnIWn4dpN-6_s-10" d="M 3237 5 L 3237 21" fill="none" stroke="#000000" stroke-miterlimit="10" pointer-events="all"/><path cell-id="d2wP55hhnIWn4dpN-6_s-10" d="M 3227 21 L 3237 21" fill="none" stroke="#000000" stroke-miterlimit="10" pointer-events="all"/><path cell-id="d2wP55hhnIWn4dpN-6_s-10" d="M 3227 5 L 3227 8" fill="none" stroke="#000000" stroke-miterlimit="10" pointer-events="all"/><rect cell-id="d2wP55hhnIWn4dpN-6_s-10" x="3224" y="8" width="7" height="4" fill="none" stroke="#000000" pointer-events="all"/><path cell-id="d2wP55hhnIWn4dpN-6_s-10" d="M 3227 12 L 3227 14" fill="none" stroke="#000000" stroke-miterlimit="10" pointer-events="all"/><rect cell-id="d2wP55hhnIWn4dpN-6_s-10" x="3224" y="14" width="7" height="4" fill="none" stroke="#000000" pointer-events="all"/><path cell-id="d2wP55hhnIWn4dpN-6_s-10" d="M 3227 18 L 3227 21" fill="none" stroke="#000000" stroke-miterlimit="10" pointer-events="all"/></g><g shape-node=""><g cell-id="d2wP55hhnIWn4dpN-6_s-10" fill="#000000" font-family="Helvetica" font-weight="bold" text-anchor="middle" font-size="12px"><text cell-id="d2wP55hhnIWn4dpN-6_s-10" x="3164" y="15.5">&lt;&lt;component&gt;&gt;</text><text cell-id="d2wP55hhnIWn4dpN-6_s-10" x="3164" y="29.5">Component</text></g></g><g shape-node=""><path cell-id="ViGWQ29Sq1G8j5HzgEND-89" d="M 1722.47 325.5 L 1722.47 315.53 L 1722.47 325.06 L 1722.47 315" fill="none" stroke="#000000" stroke-miterlimit="10" pointer-events="stroke"/></g><g shape-node=""><path cell-id="ViGWQ29Sq1G8j5HzgEND-41" d="M 1911 283.5 L 1945 283.5" fill="none" stroke="#000000" stroke-miterlimit="10" pointer-events="stroke"/></g><g shape-node=""><path cell-id="ViGWQ29Sq1G8j5HzgEND-42" d="M 1911.06 503.12 L 1945 503.12" fill="none" stroke="#000000" stroke-miterlimit="10" pointer-events="stroke"/></g><g shape-node=""><path cell-id="ViGWQ29Sq1G8j5HzgEND-43" d="M 1793 284.11 L 1886 283.59" fill="none" stroke="#000000" stroke-miterlimit="10" pointer-events="stroke"/><path cell-id="ViGWQ29Sq1G8j5HzgEND-43" d="M 1901.09 298.5 C 1895.73 298.53 1890.76 295.7 1888.06 291.07 C 1885.35 286.45 1885.32 280.73 1887.97 276.07 C 1890.62 271.42 1895.56 268.53 1900.92 268.5" fill="none" stroke="#000000" stroke-miterlimit="10" pointer-events="all"/></g><g shape-node=""><path cell-id="ViGWQ29Sq1G8j5HzgEND-44" d="M 1792 504.12 L 1886 503.58" fill="none" stroke="#000000" stroke-miterlimit="10" pointer-events="stroke"/><path cell-id="ViGWQ29Sq1G8j5HzgEND-44" d="M 1901.08 518.5 C 1892.8 518.55 1886.05 511.87 1886 503.58 C 1885.95 495.3 1892.63 488.55 1900.92 488.5" fill="none" stroke="#000000" stroke-miterlimit="10" pointer-events="all"/></g><g shape-node=""><path cell-id="ViGWQ29Sq1G8j5HzgEND-48" d="M 1568.94 271.76 L 1651 271.76" fill="none" stroke="#000000" stroke-miterlimit="10" pointer-events="stroke"/></g><g shape-node=""><path cell-id="ViGWQ29Sq1G8j5HzgEND-51" d="M 1568 178 L 1650 178" fill="none" stroke="#000000" stroke-miterlimit="10" pointer-events="stroke"/></g><g shape-node=""><path cell-id="ViGWQ29Sq1G8j5HzgEND-54" d="M 1568 380 L 1647 380" fill="none" stroke="#000000" stroke-miterlimit="10" pointer-events="stroke"/></g><g shape-node=""><path cell-id="ViGWQ29Sq1G8j5HzgEND-57" d="M 1568 491.5 L 1650 491.5" fill="none" stroke="#000000" stroke-miterlimit="10" pointer-events="stroke"/></g><g shape-node=""><path cell-id="ViGWQ29Sq1G8j5HzgEND-62" d="M 1410 360 L 1410 178.5 L 1543 178.05" fill="none" stroke="#000000" stroke-miterlimit="10" pointer-events="stroke"/><path cell-id="ViGWQ29Sq1G8j5HzgEND-62" d="M 1558.05 193 C 1552.69 193.02 1547.73 190.18 1545.04 185.54 C 1542.34 180.91 1542.32 175.19 1544.98 170.54 C 1547.65 165.89 1552.59 163.02 1557.95 163" fill="none" stroke="#000000" stroke-miterlimit="10" pointer-events="all"/></g><g shape-node=""><path cell-id="ViGWQ29Sq1G8j5HzgEND-63" d="M 1410 360 L 1410 271.5 L 1544 271.5" fill="none" stroke="#000000" stroke-miterlimit="10" pointer-events="stroke"/><path cell-id="ViGWQ29Sq1G8j5HzgEND-63" d="M 1559 286.5 C 1550.72 286.5 1544 279.78 1544 271.5 C 1544 263.22 1550.72 256.5 1559 256.5" fill="none" stroke="#000000" stroke-miterlimit="10" pointer-events="all"/></g><g shape-node=""><path cell-id="ViGWQ29Sq1G8j5HzgEND-64" d="M 1478 380 L 1543 380" fill="none" stroke="#000000" stroke-miterlimit="10" pointer-events="stroke"/><path cell-id="ViGWQ29Sq1G8j5HzgEND-64" d="M 1558 395 C 1549.72 395 1543 388.28 1543 380 C 1543 371.72 1549.72 365 1558 365" fill="none" stroke="#000000" stroke-miterlimit="10" pointer-events="all"/></g><g shape-node=""><path cell-id="ViGWQ29Sq1G8j5HzgEND-65" d="M 1410 400 L 1410 491.5 L 1543 491.5" fill="none" stroke="#000000" stroke-miterlimit="10" pointer-events="stroke"/><path cell-id="ViGWQ29Sq1G8j5HzgEND-65" d="M 1558 506.5 C 1549.72 506.5 1543 499.78 1543 491.5 C 1543 483.22 1549.72 476.5 1558 476.5" fill="none" stroke="#000000" stroke-miterlimit="10" pointer-events="all"/></g><g shape-node=""><path cell-id="ViGWQ29Sq1G8j5HzgEND-88" d="M 1722.76 454.47 L 1722.76 473" fill="none" stroke="#000000" stroke-miterlimit="10" pointer-events="stroke"/></g><g shape-node=""><path cell-id="ViGWQ29Sq1G8j5HzgEND-90" d="M 1722.5 368 L 1722.5 350.5" fill="none" stroke="#000000" stroke-miterlimit="10" pointer-events="stroke"/><path cell-id="ViGWQ29Sq1G8j5HzgEND-90" d="M 1737.5 335.5 C 1737.5 343.78 1730.78 350.5 1722.5 350.5 C 1714.22 350.5 1707.5 343.78 1707.5 335.5" fill="none" stroke="#000000" stroke-miterlimit="10" pointer-events="all"/></g><g shape-node=""><path cell-id="ViGWQ29Sq1G8j5HzgEND-91" d="M 1722.74 418 L 1722.85 429.5" fill="none" stroke="#000000" stroke-miterlimit="10" pointer-events="stroke"/><path cell-id="ViGWQ29Sq1G8j5HzgEND-91" d="M 1708 444.65 C 1707.95 439.29 1710.76 434.31 1715.37 431.58 C 1719.99 428.86 1725.71 428.8 1730.37 431.44 C 1735.04 434.07 1737.95 439 1738 444.35" fill="none" stroke="#000000" stroke-miterlimit="10" pointer-events="all"/></g><g shape-node=""><path cell-id="ViGWQ29Sq1G8j5HzgEND-95" d="M 1842 399 L 1798 399" fill="none" stroke="#000000" stroke-miterlimit="10" pointer-events="stroke"/></g><g shape-node=""><path cell-id="ViGWQ29Sq1G8j5HzgEND-96" d="M 1793 191.27 L 1852 191.5 L 1852 384" fill="none" stroke="#000000" stroke-miterlimit="10" pointer-events="stroke"/><path cell-id="ViGWQ29Sq1G8j5HzgEND-96" d="M 1837 399 C 1837 390.72 1843.72 384 1852 384 C 1860.28 384 1867 390.72 1867 399" fill="none" stroke="#000000" stroke-miterlimit="10" pointer-events="all"/></g><g shape-node=""><path cell-id="ViGWQ29Sq1G8j5HzgEND-106" d="M 1604 602.5 L 1604 629.5" fill="none" stroke="#000000" stroke-miterlimit="10" pointer-events="stroke"/></g><g shape-node=""><path cell-id="ViGWQ29Sq1G8j5HzgEND-107" d="M 1651 216.06 L 1604 216.5 L 1604 577.5" fill="none" stroke="#000000" stroke-miterlimit="10" pointer-events="stroke"/><path cell-id="ViGWQ29Sq1G8j5HzgEND-107" d="M 1589 592.5 C 1589 584.22 1595.72 577.5 1604 577.5 C 1612.28 577.5 1619 584.22 1619 592.5" fill="none" stroke="#000000" stroke-miterlimit="10" pointer-events="all"/></g><g shape-node=""><path cell-id="ViGWQ29Sq1G8j5HzgEND-108" d="M 1651 308.94 L 1604 308.5 L 1604 577.5" fill="none" stroke="#000000" stroke-miterlimit="10" pointer-events="stroke"/><path cell-id="ViGWQ29Sq1G8j5HzgEND-108" d="M 1589 592.5 C 1589 584.22 1595.72 577.5 1604 577.5 C 1612.28 577.5 1619 584.22 1619 592.5" fill="none" stroke="#000000" stroke-miterlimit="10" pointer-events="all"/></g><g shape-node=""><path cell-id="ViGWQ29Sq1G8j5HzgEND-109" d="M 1647 418.06 L 1604 418.5 L 1604 577.5" fill="none" stroke="#000000" stroke-miterlimit="10" pointer-events="stroke"/><path cell-id="ViGWQ29Sq1G8j5HzgEND-109" d="M 1589 592.5 C 1589 584.22 1595.72 577.5 1604 577.5 C 1612.28 577.5 1619 584.22 1619 592.5" fill="none" stroke="#000000" stroke-miterlimit="10" pointer-events="all"/></g><g shape-node=""><path cell-id="ViGWQ29Sq1G8j5HzgEND-110" d="M 1650 529.5 L 1604 529.5 L 1604 577.5" fill="none" stroke="#000000" stroke-miterlimit="10" pointer-events="stroke"/><path cell-id="ViGWQ29Sq1G8j5HzgEND-110" d="M 1589 592.5 C 1589 584.22 1595.72 577.5 1604 577.5 C 1612.28 577.5 1619 584.22 1619 592.5" fill="none" stroke="#000000" stroke-miterlimit="10" pointer-events="all"/></g><g shape-node=""><path cell-id="ViGWQ29Sq1G8j5HzgEND-111" d="M 1410 400 L 1410 592.5 L 1589 592.5" fill="none" stroke="#000000" stroke-miterlimit="10" pointer-events="stroke"/><path cell-id="ViGWQ29Sq1G8j5HzgEND-111" d="M 1604 607.5 C 1595.72 607.5 1589 600.78 1589 592.5 C 1589 584.22 1595.72 577.5 1604 577.5" fill="none" stroke="#000000" stroke-miterlimit="10" pointer-events="all"/></g><g shape-node=""><path cell-id="d2wP55hhnIWn4dpN-6_s-6" d="M 1283 380 L 1337 380" fill="none" stroke="#000000" stroke-miterlimit="10" pointer-events="stroke"/></g><g shape-node=""><path cell-id="d2wP55hhnIWn4dpN-6_s-7" d="M 1200 474.5 L 1200 380.5 L 1258 380.1" fill="none" stroke="#000000" stroke-miterlimit="10" pointer-events="stroke"/><path cell-id="d2wP55hhnIWn4dpN-6_s-7" d="M 1273.1 395 C 1267.74 395.04 1262.77 392.21 1260.06 387.59 C 1257.35 382.97 1257.31 377.25 1259.96 372.59 C 1262.61 367.93 1267.54 365.04 1272.9 365" fill="none" stroke="#000000" stroke-miterlimit="10" pointer-events="all"/></g><g shape-node=""><path cell-id="d2wP55hhnIWn4dpN-6_s-9" d="M 1200 281.5 L 1200 380.5 L 1258 380.1" fill="none" stroke="#000000" stroke-miterlimit="10" pointer-events="stroke"/><path cell-id="d2wP55hhnIWn4dpN-6_s-9" d="M 1273.1 395 C 1267.74 395.04 1262.77 392.21 1260.06 387.59 C 1257.35 382.97 1257.31 377.25 1259.96 372.59 C 1262.61 367.93 1267.54 365.04 1272.9 365" fill="none" stroke="#000000" stroke-miterlimit="10" pointer-events="all"/></g></g><g fill="#787878" font-family="Arial,Helvetica" pointer-events="none" font-size="12px"><text pointer-events="none" x="6" y="15">Visual Paradigm Online Free Edition</text></g><g fill="#787878" font-family="Arial,Helvetica" pointer-events="none" text-anchor="end" font-size="12px"><text pointer-events="none" x="3237" y="672">Visual Paradigm Online Free Edition</text></g></svg>