<?xml version="1.0" encoding="UTF-8"?>
<!DOCTYPE svg PUBLIC "-//W3C//DTD SVG 1.1//EN" "http://www.w3.org/Graphics/SVG/1.1/DTD/svg11.dtd">
<svg xmlns="http://www.w3.org/2000/svg" xmlns:xlink="http://www.w3.org/1999/xlink" version="1.1" width="3243px" height="655px" viewBox="-0.5 -0.5 3243 655" animation="{&quot;scriptArr&quot;:[],&quot;cellIdArr&quot;:[]}" isStartAnimationWithPreviousPage="with" style="background-color: rgb(255, 255, 255);"><defs><style type="text/css">ul { margin-top: 0px; margin-bottom: 10px; }&#xa;ol { margin-top: 0px; margin-bottom: 10px; }&#xa;.h1, .h2, .h3, .h4, .h5, .h6, h1, h2, h3, h4, h5, h6 { margin-bottom: .5rem; font-weight: 500; line-height: 1.2; }&#xa;h1, h2, h3, h4, h5, h6 { margin-top: 0; margin-bottom: .5rem; }&#xa;.h1, h1 { font-size: 2.5rem; }&#xa;h2 { font-size: 1.5em; font-weight: bold; }&#xa;h3 { font-size: 1.17em; font-weight: bold; }&#xa;.h4, h4 { font-size: 1.5rem; }&#xa;.h5, h5 { font-size: 1.25rem; }&#xa;.h6, h6 { font-size: 1rem; }&#xa;p { margin-top: 0; margin-bottom: 1rem; }&#xa;a { color: #007bff; }&#xa;ul { margin-top: 0px; margin-bottom: 10px; }&#xa;ol { margin-top: 0px; margin-bottom: 10px; }&#xa;.h1, .h2, .h3, .h4, .h5, .h6, h1, h2, h3, h4, h5, h6 { margin-bottom: .5rem; font-weight: 500; line-height: 1.2; }&#xa;h1, h2, h3, h4, h5, h6 { margin-top: 0; margin-bottom: .5rem; }&#xa;.h1, h1 { font-size: 2.5rem; }&#xa;h2 { font-size: 1.5em; font-weight: bold; }&#xa;h3 { font-size: 1.17em; font-weight: bold; }&#xa;.h4, h4 { font-size: 1.5rem; }&#xa;.h5, h5 { font-size: 1.25rem; }&#xa;.h6, h6 { font-size: 1rem; }&#xa;p { margin-top: 0; margin-bottom: 1rem; }&#xa;a { color: #007bff; }&#xa;ul { margin-top: 0px; margin-bottom: 10px; }&#xa;ol { margin-top: 0px; margin-bottom: 10px; }&#xa;.h1, .h2, .h3, .h4, .h5, .h6, h1, h2, h3, h4, h5, h6 { margin-bottom: .5rem; font-weight: 500; line-height: 1.2; }&#xa;h1, h2, h3, h4, h5, h6 { margin-top: 0; margin-bottom: .5rem; }&#xa;.h1, h1 { font-size: 2.5rem; }&#xa;h2 { font-size: 1.5em; font-weight: bold; }&#xa;h3 { font-size: 1.17em; font-weight: bold; }&#xa;.h4, h4 { font-size: 1.5rem; }&#xa;.h5, h5 { font-size: 1.25rem; }&#xa;.h6, h6 { font-size: 1rem; }&#xa;p { margin-top: 0; margin-bottom: 1rem; }&#xa;a { color: #007bff; }&#xa;</style><style type="text/css">@import url(https://fonts.googleapis.com/css2?family=Open+Sans:ital,wght@0,400;0,700;1,400;1,700&amp;display=swap);&#xa;@import url(https://fonts.googleapis.com/css2?family=Open+Sans:ital,wght@0,400;0,700;1,400;1,700&amp;display=swap);&#xa;</style></defs><g><g shape-node=""><path cell-id="ViGWQ29Sq1G8j5HzgEND-89" d="M 1722.5 325.5 L 1722.5 315.5 L 1722.5 325 L 1722.5 315" fill="none" stroke="#000000" stroke-miterlimit="10" pointer-events="stroke"/></g><g shape-node=""><rect cell-id="SEvGa5asQ0bYrBO9of45-1" x="1377" y="360" width="136" height="40" fill="#64c8be" stroke="#000000" pointer-events="all"/><rect cell-id="SEvGa5asQ0bYrBO9of45-1" x="1377" y="360" width="136" height="40" fill="none" stroke="#000000" pointer-events="all"/><path cell-id="SEvGa5asQ0bYrBO9of45-1" d="M 1498 365 L 1508 365" fill="none" stroke="#000000" stroke-miterlimit="10" pointer-events="all"/><path cell-id="SEvGa5asQ0bYrBO9of45-1" d="M 1508 365 L 1508 381" fill="none" stroke="#000000" stroke-miterlimit="10" pointer-events="all"/><path cell-id="SEvGa5asQ0bYrBO9of45-1" d="M 1498 381 L 1508 381" fill="none" stroke="#000000" stroke-miterlimit="10" pointer-events="all"/><path cell-id="SEvGa5asQ0bYrBO9of45-1" d="M 1498 365 L 1498 368" fill="none" stroke="#000000" stroke-miterlimit="10" pointer-events="all"/><rect cell-id="SEvGa5asQ0bYrBO9of45-1" x="1495" y="368" width="7" height="4" fill="none" stroke="#000000" pointer-events="all"/><path cell-id="SEvGa5asQ0bYrBO9of45-1" d="M 1498 372 L 1498 374" fill="none" stroke="#000000" stroke-miterlimit="10" pointer-events="all"/><rect cell-id="SEvGa5asQ0bYrBO9of45-1" x="1495" y="374" width="7" height="4" fill="none" stroke="#000000" pointer-events="all"/><path cell-id="SEvGa5asQ0bYrBO9of45-1" d="M 1498 378 L 1498 381" fill="none" stroke="#000000" stroke-miterlimit="10" pointer-events="all"/></g><g shape-node=""><g cell-id="SEvGa5asQ0bYrBO9of45-1" fill="#000000" font-family="Helvetica" font-weight="bold" text-anchor="middle" font-size="12px"><text cell-id="SEvGa5asQ0bYrBO9of45-1" x="1435" y="375.5">&lt;&lt;component&gt;&gt;</text><text cell-id="SEvGa5asQ0bYrBO9of45-1" x="1435" y="389.5">API Gateway</text></g></g><g shape-node=""><rect cell-id="d2wP55hhnIWn4dpN-6_s-5" x="1372" y="374" width="12" height="12" fill="#64c8be" stroke="#000000" pointer-events="all"/></g><g shape-node=""><rect cell-id="ViGWQ29Sq1G8j5HzgEND-1" x="1657" y="166" width="136" height="50" fill="#7acff5" stroke="#000000" pointer-events="all"/><rect cell-id="ViGWQ29Sq1G8j5HzgEND-1" x="1657" y="166" width="136" height="50" fill="none" stroke="#000000" pointer-events="all"/><path cell-id="ViGWQ29Sq1G8j5HzgEND-1" d="M 1778 171 L 1788 171" fill="none" stroke="#000000" stroke-miterlimit="10" pointer-events="all"/><path cell-id="ViGWQ29Sq1G8j5HzgEND-1" d="M 1788 171 L 1788 187" fill="none" stroke="#000000" stroke-miterlimit="10" pointer-events="all"/><path cell-id="ViGWQ29Sq1G8j5HzgEND-1" d="M 1778 187 L 1788 187" fill="none" stroke="#000000" stroke-miterlimit="10" pointer-events="all"/><path cell-id="ViGWQ29Sq1G8j5HzgEND-1" d="M 1778 171 L 1778 174" fill="none" stroke="#000000" stroke-miterlimit="10" pointer-events="all"/><rect cell-id="ViGWQ29Sq1G8j5HzgEND-1" x="1775" y="174" width="7" height="4" fill="none" stroke="#000000" pointer-events="all"/><path cell-id="ViGWQ29Sq1G8j5HzgEND-1" d="M 1778 178 L 1778 180" fill="none" stroke="#000000" stroke-miterlimit="10" pointer-events="all"/><rect cell-id="ViGWQ29Sq1G8j5HzgEND-1" x="1775" y="180" width="7" height="4" fill="none" stroke="#000000" pointer-events="all"/><path cell-id="ViGWQ29Sq1G8j5HzgEND-1" d="M 1778 184 L 1778 187" fill="none" stroke="#000000" stroke-miterlimit="10" pointer-events="all"/></g><g shape-node=""><g cell-id="ViGWQ29Sq1G8j5HzgEND-1" fill="#000000" font-family="Helvetica" font-weight="bold" text-anchor="middle" font-size="12px"><text cell-id="ViGWQ29Sq1G8j5HzgEND-1" x="1715" y="181.5">&lt;&lt;component&gt;&gt;</text><text cell-id="ViGWQ29Sq1G8j5HzgEND-1" x="1715" y="195.5">  Restaurant Service</text></g></g><g shape-node=""><rect cell-id="ViGWQ29Sq1G8j5HzgEND-99" x="1651" y="210" width="12" height="12" fill="#7acff5" stroke="#000000" pointer-events="all"/></g><g shape-node=""><rect cell-id="wWDwvjsAjTw8icylqge7-2" x="1786" y="194" width="12" height="12" fill="#7acff5" stroke="#000000" pointer-events="all"/></g><g shape-node=""><rect cell-id="ViGWQ29Sq1G8j5HzgEND-2" x="1653" y="368" width="139" height="50" fill="#7acff5" stroke="#000000" pointer-events="all"/><rect cell-id="ViGWQ29Sq1G8j5HzgEND-2" x="1653" y="368" width="139" height="50" fill="none" stroke="#000000" pointer-events="all"/><path cell-id="ViGWQ29Sq1G8j5HzgEND-2" d="M 1777 373 L 1787 373" fill="none" stroke="#000000" stroke-miterlimit="10" pointer-events="all"/><path cell-id="ViGWQ29Sq1G8j5HzgEND-2" d="M 1787 373 L 1787 389" fill="none" stroke="#000000" stroke-miterlimit="10" pointer-events="all"/><path cell-id="ViGWQ29Sq1G8j5HzgEND-2" d="M 1777 389 L 1787 389" fill="none" stroke="#000000" stroke-miterlimit="10" pointer-events="all"/><path cell-id="ViGWQ29Sq1G8j5HzgEND-2" d="M 1777 373 L 1777 376" fill="none" stroke="#000000" stroke-miterlimit="10" pointer-events="all"/><rect cell-id="ViGWQ29Sq1G8j5HzgEND-2" x="1774" y="376" width="7" height="4" fill="none" stroke="#000000" pointer-events="all"/><path cell-id="ViGWQ29Sq1G8j5HzgEND-2" d="M 1777 380 L 1777 382" fill="none" stroke="#000000" stroke-miterlimit="10" pointer-events="all"/><rect cell-id="ViGWQ29Sq1G8j5HzgEND-2" x="1774" y="382" width="7" height="4" fill="none" stroke="#000000" pointer-events="all"/><path cell-id="ViGWQ29Sq1G8j5HzgEND-2" d="M 1777 386 L 1777 389" fill="none" stroke="#000000" stroke-miterlimit="10" pointer-events="all"/></g><g shape-node=""><g cell-id="ViGWQ29Sq1G8j5HzgEND-2" fill="#000000" font-family="Helvetica" font-weight="bold" text-anchor="middle" font-size="12px"><text cell-id="ViGWQ29Sq1G8j5HzgEND-2" x="1712.5" y="383.5">&lt;&lt;component&gt;&gt;</text><text cell-id="ViGWQ29Sq1G8j5HzgEND-2" x="1712.5" y="397.5">Ordering Service</text></g></g><g shape-node=""><rect cell-id="ViGWQ29Sq1G8j5HzgEND-92" x="1786" y="413" width="12" height="12" fill="#7acff5" stroke="#000000" pointer-events="all"/></g><g shape-node=""><rect cell-id="ViGWQ29Sq1G8j5HzgEND-101" x="1647" y="412" width="12" height="12" fill="#7acff5" stroke="#000000" pointer-events="all"/></g><g shape-node=""><rect cell-id="ViGWQ29Sq1G8j5HzgEND-3" x="1656" y="479.5" width="136" height="50" fill="#7acff5" stroke="#000000" pointer-events="all"/><rect cell-id="ViGWQ29Sq1G8j5HzgEND-3" x="1656" y="479.5" width="136" height="50" fill="none" stroke="#000000" pointer-events="all"/><path cell-id="ViGWQ29Sq1G8j5HzgEND-3" d="M 1777 484.5 L 1787 484.5" fill="none" stroke="#000000" stroke-miterlimit="10" pointer-events="all"/><path cell-id="ViGWQ29Sq1G8j5HzgEND-3" d="M 1787 484.5 L 1787 500.5" fill="none" stroke="#000000" stroke-miterlimit="10" pointer-events="all"/><path cell-id="ViGWQ29Sq1G8j5HzgEND-3" d="M 1777 500.5 L 1787 500.5" fill="none" stroke="#000000" stroke-miterlimit="10" pointer-events="all"/><path cell-id="ViGWQ29Sq1G8j5HzgEND-3" d="M 1777 484.5 L 1777 487.5" fill="none" stroke="#000000" stroke-miterlimit="10" pointer-events="all"/><rect cell-id="ViGWQ29Sq1G8j5HzgEND-3" x="1774" y="487.5" width="7" height="4" fill="none" stroke="#000000" pointer-events="all"/><path cell-id="ViGWQ29Sq1G8j5HzgEND-3" d="M 1777 491.5 L 1777 493.5" fill="none" stroke="#000000" stroke-miterlimit="10" pointer-events="all"/><rect cell-id="ViGWQ29Sq1G8j5HzgEND-3" x="1774" y="493.5" width="7" height="4" fill="none" stroke="#000000" pointer-events="all"/><path cell-id="ViGWQ29Sq1G8j5HzgEND-3" d="M 1777 497.5 L 1777 500.5" fill="none" stroke="#000000" stroke-miterlimit="10" pointer-events="all"/></g><g shape-node=""><g cell-id="ViGWQ29Sq1G8j5HzgEND-3" fill="#000000" font-family="Helvetica" font-weight="bold" text-anchor="middle" font-size="12px"><text cell-id="ViGWQ29Sq1G8j5HzgEND-3" x="1714" y="495">&lt;&lt;component&gt;&gt;</text><text cell-id="ViGWQ29Sq1G8j5HzgEND-3" x="1714" y="509">Payment Proxy</text></g></g><g shape-node=""><rect cell-id="ViGWQ29Sq1G8j5HzgEND-84" x="1716.5" y="473" width="12" height="12" fill="#7acff5" stroke="#000000" pointer-events="all"/></g><g shape-node=""><rect cell-id="ViGWQ29Sq1G8j5HzgEND-102" x="1650" y="523.5" width="12" height="12" fill="#7acff5" stroke="#000000" pointer-events="all"/></g><g shape-node=""><rect cell-id="ViGWQ29Sq1G8j5HzgEND-4" x="1657" y="259.5" width="136" height="50" fill="#7acff5" stroke="#000000" pointer-events="all"/><rect cell-id="ViGWQ29Sq1G8j5HzgEND-4" x="1657" y="259.5" width="136" height="50" fill="none" stroke="#000000" pointer-events="all"/><path cell-id="ViGWQ29Sq1G8j5HzgEND-4" d="M 1778 264.5 L 1788 264.5" fill="none" stroke="#000000" stroke-miterlimit="10" pointer-events="all"/><path cell-id="ViGWQ29Sq1G8j5HzgEND-4" d="M 1788 264.5 L 1788 280.5" fill="none" stroke="#000000" stroke-miterlimit="10" pointer-events="all"/><path cell-id="ViGWQ29Sq1G8j5HzgEND-4" d="M 1778 280.5 L 1788 280.5" fill="none" stroke="#000000" stroke-miterlimit="10" pointer-events="all"/><path cell-id="ViGWQ29Sq1G8j5HzgEND-4" d="M 1778 264.5 L 1778 267.5" fill="none" stroke="#000000" stroke-miterlimit="10" pointer-events="all"/><rect cell-id="ViGWQ29Sq1G8j5HzgEND-4" x="1775" y="267.5" width="7" height="4" fill="none" stroke="#000000" pointer-events="all"/><path cell-id="ViGWQ29Sq1G8j5HzgEND-4" d="M 1778 271.5 L 1778 273.5" fill="none" stroke="#000000" stroke-miterlimit="10" pointer-events="all"/><rect cell-id="ViGWQ29Sq1G8j5HzgEND-4" x="1775" y="273.5" width="7" height="4" fill="none" stroke="#000000" pointer-events="all"/><path cell-id="ViGWQ29Sq1G8j5HzgEND-4" d="M 1778 277.5 L 1778 280.5" fill="none" stroke="#000000" stroke-miterlimit="10" pointer-events="all"/></g><g shape-node=""><g cell-id="ViGWQ29Sq1G8j5HzgEND-4" fill="#000000" font-family="Helvetica" font-weight="bold" text-anchor="middle" font-size="12px"><text cell-id="ViGWQ29Sq1G8j5HzgEND-4" x="1715" y="275">&lt;&lt;component&gt;&gt;</text><text cell-id="ViGWQ29Sq1G8j5HzgEND-4" x="1715" y="289">Delivery Proxy</text></g></g><g shape-node=""><rect cell-id="ViGWQ29Sq1G8j5HzgEND-47" x="1651" y="266" width="12" height="12" fill="#7acff5" stroke="#000000" pointer-events="all"/></g><g shape-node=""><rect cell-id="ViGWQ29Sq1G8j5HzgEND-83" x="1716.5" y="303" width="12" height="12" fill="#7acff5" stroke="#000000" pointer-events="all"/></g><g shape-node=""><rect cell-id="ViGWQ29Sq1G8j5HzgEND-100" x="1651" y="302" width="12" height="12" fill="#7acff5" stroke="#000000" pointer-events="all"/></g><g shape-node=""><rect cell-id="ViGWQ29Sq1G8j5HzgEND-5" x="1905" y="254.5" width="149" height="55" fill="#fff1aa" stroke="#ddab38" pointer-events="all"/><rect cell-id="ViGWQ29Sq1G8j5HzgEND-5" x="1905" y="254.5" width="149" height="55" fill="none" stroke="#ddab38" pointer-events="all"/><path cell-id="ViGWQ29Sq1G8j5HzgEND-5" d="M 2039 259.5 L 2049 259.5" fill="none" stroke="#ddab38" stroke-miterlimit="10" pointer-events="all"/><path cell-id="ViGWQ29Sq1G8j5HzgEND-5" d="M 2049 259.5 L 2049 275.5" fill="none" stroke="#ddab38" stroke-miterlimit="10" pointer-events="all"/><path cell-id="ViGWQ29Sq1G8j5HzgEND-5" d="M 2039 275.5 L 2049 275.5" fill="none" stroke="#ddab38" stroke-miterlimit="10" pointer-events="all"/><path cell-id="ViGWQ29Sq1G8j5HzgEND-5" d="M 2039 259.5 L 2039 262.5" fill="none" stroke="#ddab38" stroke-miterlimit="10" pointer-events="all"/><rect cell-id="ViGWQ29Sq1G8j5HzgEND-5" x="2036" y="262.5" width="7" height="4" fill="none" stroke="#ddab38" pointer-events="all"/><path cell-id="ViGWQ29Sq1G8j5HzgEND-5" d="M 2039 266.5 L 2039 268.5" fill="none" stroke="#ddab38" stroke-miterlimit="10" pointer-events="all"/><rect cell-id="ViGWQ29Sq1G8j5HzgEND-5" x="2036" y="268.5" width="7" height="4" fill="none" stroke="#ddab38" pointer-events="all"/><path cell-id="ViGWQ29Sq1G8j5HzgEND-5" d="M 2039 272.5 L 2039 275.5" fill="none" stroke="#ddab38" stroke-miterlimit="10" pointer-events="all"/></g><g shape-node=""><g cell-id="ViGWQ29Sq1G8j5HzgEND-5" fill="#000000" font-family="Helvetica" font-weight="bold" text-anchor="middle" font-size="12px"><text cell-id="ViGWQ29Sq1G8j5HzgEND-5" x="1969.5" y="270">&lt;&lt;component&gt;&gt;</text><text cell-id="ViGWQ29Sq1G8j5HzgEND-5" x="1969.5" y="284">3rd Party </text><text cell-id="ViGWQ29Sq1G8j5HzgEND-5" x="1969.5" y="298">Delivery Service</text></g></g><g shape-node=""><rect cell-id="ViGWQ29Sq1G8j5HzgEND-38" x="1899" y="277.5" width="12" height="12" fill="#fff1aa" stroke="#ddab38" pointer-events="all"/></g><g shape-node=""><rect cell-id="ViGWQ29Sq1G8j5HzgEND-6" x="1905" y="474.5" width="149" height="55" fill="#fff1aa" stroke="#ddab38" pointer-events="all"/><rect cell-id="ViGWQ29Sq1G8j5HzgEND-6" x="1905" y="474.5" width="149" height="55" fill="none" stroke="#ddab38" pointer-events="all"/><path cell-id="ViGWQ29Sq1G8j5HzgEND-6" d="M 2039 479.5 L 2049 479.5" fill="none" stroke="#ddab38" stroke-miterlimit="10" pointer-events="all"/><path cell-id="ViGWQ29Sq1G8j5HzgEND-6" d="M 2049 479.5 L 2049 495.5" fill="none" stroke="#ddab38" stroke-miterlimit="10" pointer-events="all"/><path cell-id="ViGWQ29Sq1G8j5HzgEND-6" d="M 2039 495.5 L 2049 495.5" fill="none" stroke="#ddab38" stroke-miterlimit="10" pointer-events="all"/><path cell-id="ViGWQ29Sq1G8j5HzgEND-6" d="M 2039 479.5 L 2039 482.5" fill="none" stroke="#ddab38" stroke-miterlimit="10" pointer-events="all"/><rect cell-id="ViGWQ29Sq1G8j5HzgEND-6" x="2036" y="482.5" width="7" height="4" fill="none" stroke="#ddab38" pointer-events="all"/><path cell-id="ViGWQ29Sq1G8j5HzgEND-6" d="M 2039 486.5 L 2039 488.5" fill="none" stroke="#ddab38" stroke-miterlimit="10" pointer-events="all"/><rect cell-id="ViGWQ29Sq1G8j5HzgEND-6" x="2036" y="488.5" width="7" height="4" fill="none" stroke="#ddab38" pointer-events="all"/><path cell-id="ViGWQ29Sq1G8j5HzgEND-6" d="M 2039 492.5 L 2039 495.5" fill="none" stroke="#ddab38" stroke-miterlimit="10" pointer-events="all"/></g><g shape-node=""><g cell-id="ViGWQ29Sq1G8j5HzgEND-6" fill="#000000" font-family="Helvetica" font-weight="bold" text-anchor="middle" font-size="12px"><text cell-id="ViGWQ29Sq1G8j5HzgEND-6" x="1969.5" y="490">&lt;&lt;component&gt;&gt;</text><text cell-id="ViGWQ29Sq1G8j5HzgEND-6" x="1969.5" y="504">3rd Party </text><text cell-id="ViGWQ29Sq1G8j5HzgEND-6" x="1969.5" y="518">Payment Service</text></g></g><g shape-node=""><rect cell-id="ViGWQ29Sq1G8j5HzgEND-15" x="1899" y="496.68" width="12" height="12" fill="#fff1aa" stroke="#ddab38" pointer-events="all"/></g><g shape-node=""><path cell-id="ViGWQ29Sq1G8j5HzgEND-41" d="M 1881 283.5 L 1886 283.5 Q 1891 283.5 1890 283.5 L 1889.5 283.5 Q 1889 283.5 1894 283.5 L 1899 283.5" fill="none" stroke="#000000" stroke-miterlimit="10" pointer-events="stroke"/></g><g shape-node=""><ellipse cell-id="ViGWQ29Sq1G8j5HzgEND-39" cx="1871" cy="283.5" rx="10" ry="10" fill="#fff1aa" stroke="#ddab38" pointer-events="all"/><ellipse cell-id="ViGWQ29Sq1G8j5HzgEND-39" cx="1871" cy="283.5" rx="10" ry="10" fill="none" stroke="#ddab38" pointer-events="all"/></g><g shape-node=""><path cell-id="ViGWQ29Sq1G8j5HzgEND-42" d="M 1881 503.1 L 1899 503.1" fill="none" stroke="#000000" stroke-miterlimit="10" pointer-events="stroke"/></g><g shape-node=""><ellipse cell-id="ViGWQ29Sq1G8j5HzgEND-27" cx="1871" cy="503.5" rx="10" ry="10" fill="#fff1aa" stroke="#ddab38" pointer-events="all"/><ellipse cell-id="ViGWQ29Sq1G8j5HzgEND-27" cx="1871" cy="503.5" rx="10" ry="10" fill="none" stroke="#ddab38" pointer-events="all"/></g><g shape-node=""><path cell-id="ViGWQ29Sq1G8j5HzgEND-43" d="M 1793 284.03 L 1856 283.6" fill="none" stroke="#000000" stroke-miterlimit="10" pointer-events="stroke"/><path cell-id="ViGWQ29Sq1G8j5HzgEND-43" d="M 1871.11 298.5 C 1862.82 298.56 1856.06 291.89 1856 283.6 C 1855.95 275.32 1862.62 268.56 1870.9 268.5" fill="none" stroke="#000000" stroke-miterlimit="10" pointer-events="all"/></g><g shape-node=""><path cell-id="ViGWQ29Sq1G8j5HzgEND-44" d="M 1792 504.04 L 1856 503.6" fill="none" stroke="#000000" stroke-miterlimit="10" pointer-events="stroke"/><path cell-id="ViGWQ29Sq1G8j5HzgEND-44" d="M 1871.1 518.5 C 1862.82 518.56 1856.06 511.89 1856 503.6 C 1855.94 495.32 1862.61 488.56 1870.9 488.5" fill="none" stroke="#000000" stroke-miterlimit="10" pointer-events="all"/></g><g shape-node=""><ellipse cell-id="ViGWQ29Sq1G8j5HzgEND-46" cx="1559" cy="271.5" rx="10" ry="10" fill="#7acff5" stroke="#000000" pointer-events="all"/><ellipse cell-id="ViGWQ29Sq1G8j5HzgEND-46" cx="1559" cy="271.5" rx="10" ry="10" fill="none" stroke="#000000" pointer-events="all"/></g><g shape-node=""><g cell-id="ViGWQ29Sq1G8j5HzgEND-46" fill="#000000" font-family="Helvetica" font-weight="bold" text-anchor="middle" font-size="12px"><text cell-id="ViGWQ29Sq1G8j5HzgEND-46" x="1558.5" y="299">REST API</text></g></g><g shape-node=""><path cell-id="ViGWQ29Sq1G8j5HzgEND-48" d="M 1569 271.75 L 1651 271.75" fill="none" stroke="#000000" stroke-miterlimit="10" pointer-events="stroke"/></g><g shape-node=""><rect cell-id="ViGWQ29Sq1G8j5HzgEND-49" x="1650" y="172" width="12" height="12" fill="#7acff5" stroke="#000000" pointer-events="all"/></g><g shape-node=""><ellipse cell-id="ViGWQ29Sq1G8j5HzgEND-50" cx="1558" cy="178" rx="10" ry="10" fill="#7acff5" stroke="#000000" pointer-events="all"/><ellipse cell-id="ViGWQ29Sq1G8j5HzgEND-50" cx="1558" cy="178" rx="10" ry="10" fill="none" stroke="#000000" pointer-events="all"/></g><g shape-node=""><g cell-id="ViGWQ29Sq1G8j5HzgEND-50" fill="#000000" font-family="Helvetica" font-weight="bold" text-anchor="middle" font-size="12px"><text cell-id="ViGWQ29Sq1G8j5HzgEND-50" x="1557.5" y="205.5">REST API</text></g></g><g shape-node=""><path cell-id="ViGWQ29Sq1G8j5HzgEND-51" d="M 1568 178 L 1650 178" fill="none" stroke="#000000" stroke-miterlimit="10" pointer-events="stroke"/></g><g shape-node=""><rect cell-id="ViGWQ29Sq1G8j5HzgEND-52" x="1647" y="374" width="12" height="12" fill="#7acff5" stroke="#000000" pointer-events="all"/></g><g shape-node=""><ellipse cell-id="ViGWQ29Sq1G8j5HzgEND-53" cx="1558" cy="380" rx="10" ry="10" fill="#7acff5" stroke="#000000" pointer-events="all"/><ellipse cell-id="ViGWQ29Sq1G8j5HzgEND-53" cx="1558" cy="380" rx="10" ry="10" fill="none" stroke="#000000" pointer-events="all"/></g><g shape-node=""><g cell-id="ViGWQ29Sq1G8j5HzgEND-53" fill="#000000" font-family="Helvetica" font-weight="bold" text-anchor="middle" font-size="12px"><text cell-id="ViGWQ29Sq1G8j5HzgEND-53" x="1557.5" y="407.5">REST API</text></g></g><g shape-node=""><path cell-id="ViGWQ29Sq1G8j5HzgEND-54" d="M 1568 380 L 1647 380" fill="none" stroke="#000000" stroke-miterlimit="10" pointer-events="stroke"/></g><g shape-node=""><rect cell-id="ViGWQ29Sq1G8j5HzgEND-55" x="1650" y="485.5" width="12" height="12" fill="#7acff5" stroke="#000000" pointer-events="all"/></g><g shape-node=""><ellipse cell-id="ViGWQ29Sq1G8j5HzgEND-56" cx="1558" cy="491.5" rx="10" ry="10" fill="#7acff5" stroke="#000000" pointer-events="all"/><ellipse cell-id="ViGWQ29Sq1G8j5HzgEND-56" cx="1558" cy="491.5" rx="10" ry="10" fill="none" stroke="#000000" pointer-events="all"/></g><g shape-node=""><g cell-id="ViGWQ29Sq1G8j5HzgEND-56" fill="#000000" font-family="Helvetica" font-weight="bold" text-anchor="middle" font-size="12px"><text cell-id="ViGWQ29Sq1G8j5HzgEND-56" x="1557.5" y="519">REST API</text></g></g><g shape-node=""><path cell-id="ViGWQ29Sq1G8j5HzgEND-57" d="M 1568 491.5 L 1650 491.5" fill="none" stroke="#000000" stroke-miterlimit="10" pointer-events="stroke"/></g><g shape-node=""><path cell-id="ViGWQ29Sq1G8j5HzgEND-62" d="M 1445 360 L 1445 178 L 1543 178" fill="none" stroke="#000000" stroke-miterlimit="10" pointer-events="stroke"/><path cell-id="ViGWQ29Sq1G8j5HzgEND-62" d="M 1558 193 C 1549.72 193 1543 186.28 1543 178 C 1543 169.72 1549.72 163 1558 163" fill="none" stroke="#000000" stroke-miterlimit="10" pointer-events="all"/></g><g shape-node=""><path cell-id="ViGWQ29Sq1G8j5HzgEND-63" d="M 1445 360 L 1445 272 L 1544 271.57" fill="none" stroke="#000000" stroke-miterlimit="10" pointer-events="stroke"/><path cell-id="ViGWQ29Sq1G8j5HzgEND-63" d="M 1559.07 286.5 C 1553.71 286.52 1548.74 283.69 1546.04 279.06 C 1543.34 274.43 1543.32 268.71 1545.98 264.06 C 1548.64 259.4 1553.58 256.52 1558.93 256.5" fill="none" stroke="#000000" stroke-miterlimit="10" pointer-events="all"/></g><g shape-node=""><path cell-id="ViGWQ29Sq1G8j5HzgEND-64" d="M 1513 380 L 1543 380" fill="none" stroke="#000000" stroke-miterlimit="10" pointer-events="stroke"/><path cell-id="ViGWQ29Sq1G8j5HzgEND-64" d="M 1558 395 C 1549.72 395 1543 388.28 1543 380 C 1543 371.72 1549.72 365 1558 365" fill="none" stroke="#000000" stroke-miterlimit="10" pointer-events="all"/></g><g shape-node=""><path cell-id="ViGWQ29Sq1G8j5HzgEND-65" d="M 1445 400 L 1445 492 L 1543 491.57" fill="none" stroke="#000000" stroke-miterlimit="10" pointer-events="stroke"/><path cell-id="ViGWQ29Sq1G8j5HzgEND-65" d="M 1558.07 506.5 C 1552.71 506.52 1547.74 503.69 1545.04 499.06 C 1542.34 494.43 1542.32 488.71 1544.98 484.06 C 1547.64 479.4 1552.57 476.52 1557.93 476.5" fill="none" stroke="#000000" stroke-miterlimit="10" pointer-events="all"/></g><g shape-node=""><rect cell-id="ViGWQ29Sq1G8j5HzgEND-66" x="1230" y="241.5" width="136" height="40" fill="#64c8be" stroke="#000000" pointer-events="all"/><rect cell-id="ViGWQ29Sq1G8j5HzgEND-66" x="1230" y="241.5" width="136" height="40" fill="none" stroke="#000000" pointer-events="all"/><path cell-id="ViGWQ29Sq1G8j5HzgEND-66" d="M 1351 246.5 L 1361 246.5" fill="none" stroke="#000000" stroke-miterlimit="10" pointer-events="all"/><path cell-id="ViGWQ29Sq1G8j5HzgEND-66" d="M 1361 246.5 L 1361 262.5" fill="none" stroke="#000000" stroke-miterlimit="10" pointer-events="all"/><path cell-id="ViGWQ29Sq1G8j5HzgEND-66" d="M 1351 262.5 L 1361 262.5" fill="none" stroke="#000000" stroke-miterlimit="10" pointer-events="all"/><path cell-id="ViGWQ29Sq1G8j5HzgEND-66" d="M 1351 246.5 L 1351 249.5" fill="none" stroke="#000000" stroke-miterlimit="10" pointer-events="all"/><rect cell-id="ViGWQ29Sq1G8j5HzgEND-66" x="1348" y="249.5" width="7" height="4" fill="none" stroke="#000000" pointer-events="all"/><path cell-id="ViGWQ29Sq1G8j5HzgEND-66" d="M 1351 253.5 L 1351 255.5" fill="none" stroke="#000000" stroke-miterlimit="10" pointer-events="all"/><rect cell-id="ViGWQ29Sq1G8j5HzgEND-66" x="1348" y="255.5" width="7" height="4" fill="none" stroke="#000000" pointer-events="all"/><path cell-id="ViGWQ29Sq1G8j5HzgEND-66" d="M 1351 259.5 L 1351 262.5" fill="none" stroke="#000000" stroke-miterlimit="10" pointer-events="all"/></g><g shape-node=""><g cell-id="ViGWQ29Sq1G8j5HzgEND-66" fill="#000000" font-family="Helvetica" font-weight="bold" text-anchor="middle" font-size="12px"><text cell-id="ViGWQ29Sq1G8j5HzgEND-66" x="1288" y="257">&lt;&lt;component&gt;&gt;</text><text cell-id="ViGWQ29Sq1G8j5HzgEND-66" x="1288" y="271">Web Service</text></g></g><g shape-node=""><ellipse cell-id="ViGWQ29Sq1G8j5HzgEND-85" cx="1722.5" cy="335.5" rx="10" ry="10" fill="#7acff5" stroke="#000000" pointer-events="all"/><ellipse cell-id="ViGWQ29Sq1G8j5HzgEND-85" cx="1722.5" cy="335.5" rx="10" ry="10" fill="none" stroke="#000000" pointer-events="all"/></g><g shape-node=""><path cell-id="ViGWQ29Sq1G8j5HzgEND-88" d="M 1722.75 454.5 L 1722.75 473" fill="none" stroke="#000000" stroke-miterlimit="10" pointer-events="stroke"/></g><g shape-node=""><ellipse cell-id="ViGWQ29Sq1G8j5HzgEND-86" cx="1723" cy="444.5" rx="10" ry="10" fill="#7acff5" stroke="#000000" pointer-events="all"/><ellipse cell-id="ViGWQ29Sq1G8j5HzgEND-86" cx="1723" cy="444.5" rx="10" ry="10" fill="none" stroke="#000000" pointer-events="all"/></g><g shape-node=""><path cell-id="ViGWQ29Sq1G8j5HzgEND-90" d="M 1722.5 368 L 1722.5 350.5" fill="none" stroke="#000000" stroke-miterlimit="10" pointer-events="stroke"/><path cell-id="ViGWQ29Sq1G8j5HzgEND-90" d="M 1737.5 335.5 C 1737.5 343.78 1730.78 350.5 1722.5 350.5 C 1714.22 350.5 1707.5 343.78 1707.5 335.5" fill="none" stroke="#000000" stroke-miterlimit="10" pointer-events="all"/></g><g shape-node=""><path cell-id="ViGWQ29Sq1G8j5HzgEND-91" d="M 1722.74 418 L 1722.85 429.5" fill="none" stroke="#000000" stroke-miterlimit="10" pointer-events="stroke"/><path cell-id="ViGWQ29Sq1G8j5HzgEND-91" d="M 1708 444.65 C 1707.95 439.29 1710.76 434.31 1715.37 431.58 C 1719.99 428.86 1725.71 428.8 1730.37 431.44 C 1735.04 434.07 1737.95 439 1738 444.35" fill="none" stroke="#000000" stroke-miterlimit="10" pointer-events="all"/></g><g shape-node=""><ellipse cell-id="ViGWQ29Sq1G8j5HzgEND-93" cx="1826" cy="200" rx="10" ry="10" fill="#7acff5" stroke="#000000" pointer-events="all"/><ellipse cell-id="ViGWQ29Sq1G8j5HzgEND-93" cx="1826" cy="200" rx="10" ry="10" fill="none" stroke="#000000" pointer-events="all"/></g><g shape-node=""><path cell-id="ViGWQ29Sq1G8j5HzgEND-95" d="M 1816 200 L 1806 200 L 1808 200 L 1798 200" fill="none" stroke="#000000" stroke-miterlimit="10" pointer-events="stroke"/></g><g shape-node=""><rect cell-id="ViGWQ29Sq1G8j5HzgEND-98" x="1536" y="613.5" width="136" height="40" fill="#fff1aa" stroke="#000000" pointer-events="all"/><rect cell-id="ViGWQ29Sq1G8j5HzgEND-98" x="1536" y="613.5" width="136" height="40" fill="none" stroke="#000000" pointer-events="all"/><path cell-id="ViGWQ29Sq1G8j5HzgEND-98" d="M 1657 618.5 L 1667 618.5" fill="none" stroke="#000000" stroke-miterlimit="10" pointer-events="all"/><path cell-id="ViGWQ29Sq1G8j5HzgEND-98" d="M 1667 618.5 L 1667 634.5" fill="none" stroke="#000000" stroke-miterlimit="10" pointer-events="all"/><path cell-id="ViGWQ29Sq1G8j5HzgEND-98" d="M 1657 634.5 L 1667 634.5" fill="none" stroke="#000000" stroke-miterlimit="10" pointer-events="all"/><path cell-id="ViGWQ29Sq1G8j5HzgEND-98" d="M 1657 618.5 L 1657 621.5" fill="none" stroke="#000000" stroke-miterlimit="10" pointer-events="all"/><rect cell-id="ViGWQ29Sq1G8j5HzgEND-98" x="1654" y="621.5" width="7" height="4" fill="none" stroke="#000000" pointer-events="all"/><path cell-id="ViGWQ29Sq1G8j5HzgEND-98" d="M 1657 625.5 L 1657 627.5" fill="none" stroke="#000000" stroke-miterlimit="10" pointer-events="all"/><rect cell-id="ViGWQ29Sq1G8j5HzgEND-98" x="1654" y="627.5" width="7" height="4" fill="none" stroke="#000000" pointer-events="all"/><path cell-id="ViGWQ29Sq1G8j5HzgEND-98" d="M 1657 631.5 L 1657 634.5" fill="none" stroke="#000000" stroke-miterlimit="10" pointer-events="all"/></g><g shape-node=""><g cell-id="ViGWQ29Sq1G8j5HzgEND-98" fill="#000000" font-family="Helvetica" font-weight="bold" text-anchor="middle" font-size="12px"><text cell-id="ViGWQ29Sq1G8j5HzgEND-98" x="1594" y="629">&lt;&lt;component&gt;&gt;</text><text cell-id="ViGWQ29Sq1G8j5HzgEND-98" x="1594" y="643">Service Registry</text></g></g><g shape-node=""><rect cell-id="ViGWQ29Sq1G8j5HzgEND-105" x="1598" y="606.5" width="12" height="12" fill="#fff1aa" stroke="#000000" pointer-events="all"/></g><g shape-node=""><ellipse cell-id="ViGWQ29Sq1G8j5HzgEND-103" cx="1604" cy="574.5" rx="10" ry="10" fill="#fff1aa" stroke="#000000" pointer-events="all"/><ellipse cell-id="ViGWQ29Sq1G8j5HzgEND-103" cx="1604" cy="574.5" rx="10" ry="10" fill="none" stroke="#000000" pointer-events="all"/></g><g shape-node=""><path cell-id="ViGWQ29Sq1G8j5HzgEND-106" d="M 1604 584.5 L 1604 606.5" fill="none" stroke="#000000" stroke-miterlimit="10" pointer-events="stroke"/></g><g shape-node=""><path cell-id="ViGWQ29Sq1G8j5HzgEND-107" d="M 1651 215.94 L 1604 215.5 L 1604 559.5" fill="none" stroke="#000000" stroke-miterlimit="10" pointer-events="stroke"/><path cell-id="ViGWQ29Sq1G8j5HzgEND-107" d="M 1589 574.5 C 1589 566.22 1595.72 559.5 1604 559.5 C 1612.28 559.5 1619 566.22 1619 574.5" fill="none" stroke="#000000" stroke-miterlimit="10" pointer-events="all"/></g><g shape-node=""><path cell-id="ViGWQ29Sq1G8j5HzgEND-108" d="M 1651 308.05 L 1604 308.5 L 1604 559.5" fill="none" stroke="#000000" stroke-miterlimit="10" pointer-events="stroke"/><path cell-id="ViGWQ29Sq1G8j5HzgEND-108" d="M 1589 574.5 C 1589 566.22 1595.72 559.5 1604 559.5 C 1612.28 559.5 1619 566.22 1619 574.5" fill="none" stroke="#000000" stroke-miterlimit="10" pointer-events="all"/></g><g shape-node=""><path cell-id="ViGWQ29Sq1G8j5HzgEND-109" d="M 1647 418.06 L 1604 418.5 L 1604 559.5" fill="none" stroke="#000000" stroke-miterlimit="10" pointer-events="stroke"/><path cell-id="ViGWQ29Sq1G8j5HzgEND-109" d="M 1589 574.5 C 1589 566.22 1595.72 559.5 1604 559.5 C 1612.28 559.5 1619 566.22 1619 574.5" fill="none" stroke="#000000" stroke-miterlimit="10" pointer-events="all"/></g><g shape-node=""><path cell-id="ViGWQ29Sq1G8j5HzgEND-110" d="M 1650 529.5 L 1604 529.5 L 1604 559.5" fill="none" stroke="#000000" stroke-miterlimit="10" pointer-events="stroke"/><path cell-id="ViGWQ29Sq1G8j5HzgEND-110" d="M 1589 574.5 C 1589 566.22 1595.72 559.5 1604 559.5 C 1612.28 559.5 1619 566.22 1619 574.5" fill="none" stroke="#000000" stroke-miterlimit="10" pointer-events="all"/></g><g shape-node=""><path cell-id="ViGWQ29Sq1G8j5HzgEND-111" d="M 1445 400 L 1445 575 L 1589 574.55" fill="none" stroke="#000000" stroke-miterlimit="10" pointer-events="stroke"/><path cell-id="ViGWQ29Sq1G8j5HzgEND-111" d="M 1604.05 589.5 C 1598.69 589.52 1593.73 586.67 1591.03 582.04 C 1588.34 577.41 1588.32 571.69 1590.99 567.04 C 1593.65 562.39 1598.59 559.52 1603.95 559.5" fill="none" stroke="#000000" stroke-miterlimit="10" pointer-events="all"/></g><g shape-node=""><rect cell-id="ViGWQ29Sq1G8j5HzgEND-112" x="0" y="0" width="136" height="40" fill="#7acff5" stroke="#000000" pointer-events="all"/><rect cell-id="ViGWQ29Sq1G8j5HzgEND-112" x="0" y="0" width="136" height="40" fill="none" stroke="#000000" pointer-events="all"/><path cell-id="ViGWQ29Sq1G8j5HzgEND-112" d="M 121 5 L 131 5" fill="none" stroke="#000000" stroke-miterlimit="10" pointer-events="all"/><path cell-id="ViGWQ29Sq1G8j5HzgEND-112" d="M 131 5 L 131 21" fill="none" stroke="#000000" stroke-miterlimit="10" pointer-events="all"/><path cell-id="ViGWQ29Sq1G8j5HzgEND-112" d="M 121 21 L 131 21" fill="none" stroke="#000000" stroke-miterlimit="10" pointer-events="all"/><path cell-id="ViGWQ29Sq1G8j5HzgEND-112" d="M 121 5 L 121 8" fill="none" stroke="#000000" stroke-miterlimit="10" pointer-events="all"/><rect cell-id="ViGWQ29Sq1G8j5HzgEND-112" x="118" y="8" width="7" height="4" fill="none" stroke="#000000" pointer-events="all"/><path cell-id="ViGWQ29Sq1G8j5HzgEND-112" d="M 121 12 L 121 14" fill="none" stroke="#000000" stroke-miterlimit="10" pointer-events="all"/><rect cell-id="ViGWQ29Sq1G8j5HzgEND-112" x="118" y="14" width="7" height="4" fill="none" stroke="#000000" pointer-events="all"/><path cell-id="ViGWQ29Sq1G8j5HzgEND-112" d="M 121 18 L 121 21" fill="none" stroke="#000000" stroke-miterlimit="10" pointer-events="all"/></g><g shape-node=""><g cell-id="ViGWQ29Sq1G8j5HzgEND-112" fill="#000000" font-family="Helvetica" font-weight="bold" text-anchor="middle" font-size="12px"><text cell-id="ViGWQ29Sq1G8j5HzgEND-112" x="58" y="15.5">&lt;&lt;component&gt;&gt;</text><text cell-id="ViGWQ29Sq1G8j5HzgEND-112" x="58" y="29.5">Component</text></g></g><g shape-node=""><rect cell-id="d2wP55hhnIWn4dpN-6_s-2" x="1230" y="474.5" width="136" height="40" fill="#fff1aa" stroke="#000000" pointer-events="all"/><rect cell-id="d2wP55hhnIWn4dpN-6_s-2" x="1230" y="474.5" width="136" height="40" fill="none" stroke="#000000" pointer-events="all"/><path cell-id="d2wP55hhnIWn4dpN-6_s-2" d="M 1351 479.5 L 1361 479.5" fill="none" stroke="#000000" stroke-miterlimit="10" pointer-events="all"/><path cell-id="d2wP55hhnIWn4dpN-6_s-2" d="M 1361 479.5 L 1361 495.5" fill="none" stroke="#000000" stroke-miterlimit="10" pointer-events="all"/><path cell-id="d2wP55hhnIWn4dpN-6_s-2" d="M 1351 495.5 L 1361 495.5" fill="none" stroke="#000000" stroke-miterlimit="10" pointer-events="all"/><path cell-id="d2wP55hhnIWn4dpN-6_s-2" d="M 1351 479.5 L 1351 482.5" fill="none" stroke="#000000" stroke-miterlimit="10" pointer-events="all"/><rect cell-id="d2wP55hhnIWn4dpN-6_s-2" x="1348" y="482.5" width="7" height="4" fill="none" stroke="#000000" pointer-events="all"/><path cell-id="d2wP55hhnIWn4dpN-6_s-2" d="M 1351 486.5 L 1351 488.5" fill="none" stroke="#000000" stroke-miterlimit="10" pointer-events="all"/><rect cell-id="d2wP55hhnIWn4dpN-6_s-2" x="1348" y="488.5" width="7" height="4" fill="none" stroke="#000000" pointer-events="all"/><path cell-id="d2wP55hhnIWn4dpN-6_s-2" d="M 1351 492.5 L 1351 495.5" fill="none" stroke="#000000" stroke-miterlimit="10" pointer-events="all"/></g><g shape-node=""><g cell-id="d2wP55hhnIWn4dpN-6_s-2" fill="#000000" font-family="Helvetica" font-weight="bold" text-anchor="middle" font-size="12px"><text cell-id="d2wP55hhnIWn4dpN-6_s-2" x="1288" y="490">&lt;&lt;component&gt;&gt;</text><text cell-id="d2wP55hhnIWn4dpN-6_s-2" x="1288" y="504">REST Client</text></g></g><g shape-node=""><ellipse cell-id="d2wP55hhnIWn4dpN-6_s-3" cx="1337" cy="380" rx="10" ry="10" fill="#64c8be" stroke="#000000" pointer-events="all"/><ellipse cell-id="d2wP55hhnIWn4dpN-6_s-3" cx="1337" cy="380" rx="10" ry="10" fill="none" stroke="#000000" pointer-events="all"/></g><g shape-node=""><path cell-id="d2wP55hhnIWn4dpN-6_s-6" d="M 1347 380 L 1372 380" fill="none" stroke="#000000" stroke-miterlimit="10" pointer-events="stroke"/></g><g shape-node=""><path cell-id="d2wP55hhnIWn4dpN-6_s-7" d="M 1298 474.5 L 1298 380.5 L 1322 380.19" fill="none" stroke="#000000" stroke-miterlimit="10" pointer-events="stroke"/><path cell-id="d2wP55hhnIWn4dpN-6_s-7" d="M 1337.19 395 C 1331.83 395.07 1326.85 392.27 1324.11 387.67 C 1321.37 383.06 1321.29 377.34 1323.91 372.67 C 1326.53 367.99 1331.45 365.07 1336.81 365" fill="none" stroke="#000000" stroke-miterlimit="10" pointer-events="all"/></g><g shape-node=""><path cell-id="d2wP55hhnIWn4dpN-6_s-9" d="M 1298 281.5 L 1298 380.5 L 1322 380.19" fill="none" stroke="#000000" stroke-miterlimit="10" pointer-events="stroke"/><path cell-id="d2wP55hhnIWn4dpN-6_s-9" d="M 1337.19 395 C 1331.83 395.07 1326.85 392.27 1324.11 387.67 C 1321.37 383.06 1321.29 377.34 1323.91 372.67 C 1326.53 367.99 1331.45 365.07 1336.81 365" fill="none" stroke="#000000" stroke-miterlimit="10" pointer-events="all"/></g><g shape-node=""><rect cell-id="d2wP55hhnIWn4dpN-6_s-10" x="3106" y="0" width="136" height="40" fill="#7acff5" stroke="#000000" pointer-events="all"/><rect cell-id="d2wP55hhnIWn4dpN-6_s-10" x="3106" y="0" width="136" height="40" fill="none" stroke="#000000" pointer-events="all"/><path cell-id="d2wP55hhnIWn4dpN-6_s-10" d="M 3227 5 L 3237 5" fill="none" stroke="#000000" stroke-miterlimit="10" pointer-events="all"/><path cell-id="d2wP55hhnIWn4dpN-6_s-10" d="M 3237 5 L 3237 21" fill="none" stroke="#000000" stroke-miterlimit="10" pointer-events="all"/><path cell-id="d2wP55hhnIWn4dpN-6_s-10" d="M 3227 21 L 3237 21" fill="none" stroke="#000000" stroke-miterlimit="10" pointer-events="all"/><path cell-id="d2wP55hhnIWn4dpN-6_s-10" d="M 3227 5 L 3227 8" fill="none" stroke="#000000" stroke-miterlimit="10" pointer-events="all"/><rect cell-id="d2wP55hhnIWn4dpN-6_s-10" x="3224" y="8" width="7" height="4" fill="none" stroke="#000000" pointer-events="all"/><path cell-id="d2wP55hhnIWn4dpN-6_s-10" d="M 3227 12 L 3227 14" fill="none" stroke="#000000" stroke-miterlimit="10" pointer-events="all"/><rect cell-id="d2wP55hhnIWn4dpN-6_s-10" x="3224" y="14" width="7" height="4" fill="none" stroke="#000000" pointer-events="all"/><path cell-id="d2wP55hhnIWn4dpN-6_s-10" d="M 3227 18 L 3227 21" fill="none" stroke="#000000" stroke-miterlimit="10" pointer-events="all"/></g><g shape-node=""><g cell-id="d2wP55hhnIWn4dpN-6_s-10" fill="#000000" font-family="Helvetica" font-weight="bold" text-anchor="middle" font-size="12px"><text cell-id="d2wP55hhnIWn4dpN-6_s-10" x="3164" y="15.5">&lt;&lt;component&gt;&gt;</text><text cell-id="d2wP55hhnIWn4dpN-6_s-10" x="3164" y="29.5">Component</text></g></g><g shape-node=""><path cell-id="wWDwvjsAjTw8icylqge7-3" d="M 1798 419 L 1826 419 L 1826 215" fill="none" stroke="#000000" stroke-miterlimit="10" pointer-events="stroke"/><path cell-id="wWDwvjsAjTw8icylqge7-3" d="M 1841 200 C 1841 208.28 1834.28 215 1826 215 C 1817.72 215 1811 208.28 1811 200" fill="none" stroke="#000000" stroke-miterlimit="10" pointer-events="all"/></g><g shape-node=""><path cell-id="ViGWQ29Sq1G8j5HzgEND-89" d="M 1722.5 325.5 L 1722.5 315.5 L 1722.5 325 L 1722.5 315" fill="none" stroke="#000000" stroke-miterlimit="10" pointer-events="stroke"/></g><g shape-node=""><path cell-id="ViGWQ29Sq1G8j5HzgEND-41" d="M 1881 283.5 L 1886 283.5 Q 1891 283.5 1890 283.5 L 1889.5 283.5 Q 1889 283.5 1894 283.5 L 1899 283.5" fill="none" stroke="#000000" stroke-miterlimit="10" pointer-events="stroke"/></g><g shape-node=""><path cell-id="ViGWQ29Sq1G8j5HzgEND-42" d="M 1881 503.1 L 1899 503.1" fill="none" stroke="#000000" stroke-miterlimit="10" pointer-events="stroke"/></g><g shape-node=""><path cell-id="ViGWQ29Sq1G8j5HzgEND-43" d="M 1793 284.03 L 1856 283.6" fill="none" stroke="#000000" stroke-miterlimit="10" pointer-events="stroke"/><path cell-id="ViGWQ29Sq1G8j5HzgEND-43" d="M 1871.11 298.5 C 1862.82 298.56 1856.06 291.89 1856 283.6 C 1855.95 275.32 1862.62 268.56 1870.9 268.5" fill="none" stroke="#000000" stroke-miterlimit="10" pointer-events="all"/></g><g shape-node=""><path cell-id="ViGWQ29Sq1G8j5HzgEND-44" d="M 1792 504.04 L 1856 503.6" fill="none" stroke="#000000" stroke-miterlimit="10" pointer-events="stroke"/><path cell-id="ViGWQ29Sq1G8j5HzgEND-44" d="M 1871.1 518.5 C 1862.82 518.56 1856.06 511.89 1856 503.6 C 1855.94 495.32 1862.61 488.56 1870.9 488.5" fill="none" stroke="#000000" stroke-miterlimit="10" pointer-events="all"/></g><g shape-node=""><path cell-id="ViGWQ29Sq1G8j5HzgEND-48" d="M 1569 271.75 L 1651 271.75" fill="none" stroke="#000000" stroke-miterlimit="10" pointer-events="stroke"/></g><g shape-node=""><path cell-id="ViGWQ29Sq1G8j5HzgEND-51" d="M 1568 178 L 1650 178" fill="none" stroke="#000000" stroke-miterlimit="10" pointer-events="stroke"/></g><g shape-node=""><path cell-id="ViGWQ29Sq1G8j5HzgEND-54" d="M 1568 380 L 1647 380" fill="none" stroke="#000000" stroke-miterlimit="10" pointer-events="stroke"/></g><g shape-node=""><path cell-id="ViGWQ29Sq1G8j5HzgEND-57" d="M 1568 491.5 L 1650 491.5" fill="none" stroke="#000000" stroke-miterlimit="10" pointer-events="stroke"/></g><g shape-node=""><path cell-id="ViGWQ29Sq1G8j5HzgEND-62" d="M 1445 360 L 1445 178 L 1543 178" fill="none" stroke="#000000" stroke-miterlimit="10" pointer-events="stroke"/><path cell-id="ViGWQ29Sq1G8j5HzgEND-62" d="M 1558 193 C 1549.72 193 1543 186.28 1543 178 C 1543 169.72 1549.72 163 1558 163" fill="none" stroke="#000000" stroke-miterlimit="10" pointer-events="all"/></g><g shape-node=""><path cell-id="ViGWQ29Sq1G8j5HzgEND-63" d="M 1445 360 L 1445 272 L 1544 271.57" fill="none" stroke="#000000" stroke-miterlimit="10" pointer-events="stroke"/><path cell-id="ViGWQ29Sq1G8j5HzgEND-63" d="M 1559.07 286.5 C 1553.71 286.52 1548.74 283.69 1546.04 279.06 C 1543.34 274.43 1543.32 268.71 1545.98 264.06 C 1548.64 259.4 1553.58 256.52 1558.93 256.5" fill="none" stroke="#000000" stroke-miterlimit="10" pointer-events="all"/></g><g shape-node=""><path cell-id="ViGWQ29Sq1G8j5HzgEND-64" d="M 1513 380 L 1543 380" fill="none" stroke="#000000" stroke-miterlimit="10" pointer-events="stroke"/><path cell-id="ViGWQ29Sq1G8j5HzgEND-64" d="M 1558 395 C 1549.72 395 1543 388.28 1543 380 C 1543 371.72 1549.72 365 1558 365" fill="none" stroke="#000000" stroke-miterlimit="10" pointer-events="all"/></g><g shape-node=""><path cell-id="ViGWQ29Sq1G8j5HzgEND-65" d="M 1445 400 L 1445 492 L 1543 491.57" fill="none" stroke="#000000" stroke-miterlimit="10" pointer-events="stroke"/><path cell-id="ViGWQ29Sq1G8j5HzgEND-65" d="M 1558.07 506.5 C 1552.71 506.52 1547.74 503.69 1545.04 499.06 C 1542.34 494.43 1542.32 488.71 1544.98 484.06 C 1547.64 479.4 1552.57 476.52 1557.93 476.5" fill="none" stroke="#000000" stroke-miterlimit="10" pointer-events="all"/></g><g shape-node=""><path cell-id="ViGWQ29Sq1G8j5HzgEND-88" d="M 1722.75 454.5 L 1722.75 473" fill="none" stroke="#000000" stroke-miterlimit="10" pointer-events="stroke"/></g><g shape-node=""><path cell-id="ViGWQ29Sq1G8j5HzgEND-90" d="M 1722.5 368 L 1722.5 350.5" fill="none" stroke="#000000" stroke-miterlimit="10" pointer-events="stroke"/><path cell-id="ViGWQ29Sq1G8j5HzgEND-90" d="M 1737.5 335.5 C 1737.5 343.78 1730.78 350.5 1722.5 350.5 C 1714.22 350.5 1707.5 343.78 1707.5 335.5" fill="none" stroke="#000000" stroke-miterlimit="10" pointer-events="all"/></g><g shape-node=""><path cell-id="ViGWQ29Sq1G8j5HzgEND-91" d="M 1722.74 418 L 1722.85 429.5" fill="none" stroke="#000000" stroke-miterlimit="10" pointer-events="stroke"/><path cell-id="ViGWQ29Sq1G8j5HzgEND-91" d="M 1708 444.65 C 1707.95 439.29 1710.76 434.31 1715.37 431.58 C 1719.99 428.86 1725.71 428.8 1730.37 431.44 C 1735.04 434.07 1737.95 439 1738 444.35" fill="none" stroke="#000000" stroke-miterlimit="10" pointer-events="all"/></g><g shape-node=""><path cell-id="ViGWQ29Sq1G8j5HzgEND-95" d="M 1816 200 L 1806 200 L 1808 200 L 1798 200" fill="none" stroke="#000000" stroke-miterlimit="10" pointer-events="stroke"/></g><g shape-node=""><path cell-id="ViGWQ29Sq1G8j5HzgEND-106" d="M 1604 584.5 L 1604 606.5" fill="none" stroke="#000000" stroke-miterlimit="10" pointer-events="stroke"/></g><g shape-node=""><path cell-id="ViGWQ29Sq1G8j5HzgEND-107" d="M 1651 215.94 L 1604 215.5 L 1604 559.5" fill="none" stroke="#000000" stroke-miterlimit="10" pointer-events="stroke"/><path cell-id="ViGWQ29Sq1G8j5HzgEND-107" d="M 1589 574.5 C 1589 566.22 1595.72 559.5 1604 559.5 C 1612.28 559.5 1619 566.22 1619 574.5" fill="none" stroke="#000000" stroke-miterlimit="10" pointer-events="all"/></g><g shape-node=""><path cell-id="ViGWQ29Sq1G8j5HzgEND-108" d="M 1651 308.05 L 1604 308.5 L 1604 559.5" fill="none" stroke="#000000" stroke-miterlimit="10" pointer-events="stroke"/><path cell-id="ViGWQ29Sq1G8j5HzgEND-108" d="M 1589 574.5 C 1589 566.22 1595.72 559.5 1604 559.5 C 1612.28 559.5 1619 566.22 1619 574.5" fill="none" stroke="#000000" stroke-miterlimit="10" pointer-events="all"/></g><g shape-node=""><path cell-id="ViGWQ29Sq1G8j5HzgEND-109" d="M 1647 418.06 L 1604 418.5 L 1604 559.5" fill="none" stroke="#000000" stroke-miterlimit="10" pointer-events="stroke"/><path cell-id="ViGWQ29Sq1G8j5HzgEND-109" d="M 1589 574.5 C 1589 566.22 1595.72 559.5 1604 559.5 C 1612.28 559.5 1619 566.22 1619 574.5" fill="none" stroke="#000000" stroke-miterlimit="10" pointer-events="all"/></g><g shape-node=""><path cell-id="ViGWQ29Sq1G8j5HzgEND-110" d="M 1650 529.5 L 1604 529.5 L 1604 559.5" fill="none" stroke="#000000" stroke-miterlimit="10" pointer-events="stroke"/><path cell-id="ViGWQ29Sq1G8j5HzgEND-110" d="M 1589 574.5 C 1589 566.22 1595.72 559.5 1604 559.5 C 1612.28 559.5 1619 566.22 1619 574.5" fill="none" stroke="#000000" stroke-miterlimit="10" pointer-events="all"/></g><g shape-node=""><path cell-id="ViGWQ29Sq1G8j5HzgEND-111" d="M 1445 400 L 1445 575 L 1589 574.55" fill="none" stroke="#000000" stroke-miterlimit="10" pointer-events="stroke"/><path cell-id="ViGWQ29Sq1G8j5HzgEND-111" d="M 1604.05 589.5 C 1598.69 589.52 1593.73 586.67 1591.03 582.04 C 1588.34 577.41 1588.32 571.69 1590.99 567.04 C 1593.65 562.39 1598.59 559.52 1603.95 559.5" fill="none" stroke="#000000" stroke-miterlimit="10" pointer-events="all"/></g><g shape-node=""><path cell-id="d2wP55hhnIWn4dpN-6_s-6" d="M 1347 380 L 1372 380" fill="none" stroke="#000000" stroke-miterlimit="10" pointer-events="stroke"/></g><g shape-node=""><path cell-id="d2wP55hhnIWn4dpN-6_s-7" d="M 1298 474.5 L 1298 380.5 L 1322 380.19" fill="none" stroke="#000000" stroke-miterlimit="10" pointer-events="stroke"/><path cell-id="d2wP55hhnIWn4dpN-6_s-7" d="M 1337.19 395 C 1331.83 395.07 1326.85 392.27 1324.11 387.67 C 1321.37 383.06 1321.29 377.34 1323.91 372.67 C 1326.53 367.99 1331.45 365.07 1336.81 365" fill="none" stroke="#000000" stroke-miterlimit="10" pointer-events="all"/></g><g shape-node=""><path cell-id="d2wP55hhnIWn4dpN-6_s-9" d="M 1298 281.5 L 1298 380.5 L 1322 380.19" fill="none" stroke="#000000" stroke-miterlimit="10" pointer-events="stroke"/><path cell-id="d2wP55hhnIWn4dpN-6_s-9" d="M 1337.19 395 C 1331.83 395.07 1326.85 392.27 1324.11 387.67 C 1321.37 383.06 1321.29 377.34 1323.91 372.67 C 1326.53 367.99 1331.45 365.07 1336.81 365" fill="none" stroke="#000000" stroke-miterlimit="10" pointer-events="all"/></g><g shape-node=""><path cell-id="wWDwvjsAjTw8icylqge7-3" d="M 1798 419 L 1826 419 L 1826 215" fill="none" stroke="#000000" stroke-miterlimit="10" pointer-events="stroke"/><path cell-id="wWDwvjsAjTw8icylqge7-3" d="M 1841 200 C 1841 208.28 1834.28 215 1826 215 C 1817.72 215 1811 208.28 1811 200" fill="none" stroke="#000000" stroke-miterlimit="10" pointer-events="all"/></g></g><g fill="#787878" font-family="Arial,Helvetica" pointer-events="none" font-size="12px"><text pointer-events="none" x="6" y="15">Visual Paradigm Online Free Edition</text></g><g fill="#787878" font-family="Arial,Helvetica" pointer-events="none" text-anchor="end" font-size="12px"><text pointer-events="none" x="3237" y="649">Visual Paradigm Online Free Edition</text></g></svg>